<?xml version="1.0" standalone="no"?>
<!DOCTYPE svg PUBLIC "-//W3C//DTD SVG 20010904//EN"
 "http://www.w3.org/TR/2001/REC-SVG-20010904/DTD/svg10.dtd">
<svg version="1.0" xmlns="http://www.w3.org/2000/svg"
 width="360.000000pt" height="360.000000pt" viewBox="0 0 360.000000 360.000000"
 preserveAspectRatio="xMidYMid meet">
<metadata>
Created by potrace 1.14, written by Peter Selinger 2001-2017
</metadata>
<g transform="translate(0.000000,360.000000) scale(0.100000,-0.100000)"
fill="#000000" stroke="none">
<path d="M2082 3533 c-21 -27 -51 -70 -67 -96 l-28 -48 -56 7 c-31 5 -71 7
-90 6 -35 -1 -96 -25 -106 -42 -7 -12 -88 -13 -99 -2 -4 4 -11 7 -14 8 -4 0
-20 6 -37 13 -57 24 -187 42 -254 36 -59 -6 -68 -11 -116 -56 -28 -27 -60 -65
-71 -84 l-19 -35 -116 0 c-98 0 -118 -3 -132 -17 -18 -21 -67 -129 -67 -149 0
-17 2 -17 -51 2 -62 23 -279 22 -469 -1 -47 -6 -208 -18 -242 -18 -19 -1 -28
-6 -28 -17 0 -28 87 -354 120 -447 16 -49 44 -108 61 -132 16 -24 29 -44 27
-45 -3 -2 -17 -9 -128 -59 -30 -14 -66 -27 -80 -30 -19 -3 -17 -5 11 -6 20 0
39 2 42 5 4 4 45 23 92 43 59 26 102 52 138 87 50 48 181 189 222 241 26 32
185 170 300 259 195 151 442 297 487 289 10 -2 16 0 13 6 -6 8 7 12 47 12 10
0 15 4 12 8 -5 9 7 11 58 12 15 0 25 4 23 8 -6 9 43 22 55 14 4 -3 10 0 12 6
2 7 30 12 70 13 36 1 64 4 61 9 -2 4 8 7 23 7 l28 0 -29 -30 -29 -30 26 2 c15
1 26 7 25 13 -1 5 4 9 11 7 6 -1 11 4 10 10 -2 7 3 12 10 10 6 -1 11 4 10 10
-2 7 3 12 10 10 8 -1 11 1 9 5 -3 5 6 13 19 20 18 8 22 8 17 0 -4 -7 1 -6 10
2 13 10 37 12 95 8 86 -7 149 -26 204 -62 41 -27 53 -31 42 -14 -4 8 27 10
107 8 122 -3 151 -7 144 -18 -2 -4 2 -8 10 -8 8 0 11 5 8 10 -4 6 -1 7 8 1 8
-4 27 -9 42 -10 16 -2 37 -10 47 -19 11 -10 21 -12 24 -7 7 12 43 4 53 -11 4
-6 1 -7 -7 -2 -9 5 -11 4 -6 -4 6 -9 11 -9 22 0 12 10 18 6 16 -12 -1 -3 5 -6
13 -6 8 0 11 5 8 11 -4 7 -1 6 8 -1 15 -12 19 -13 45 -13 8 0 13 -4 10 -9 -3
-4 4 -8 17 -7 15 1 21 -4 19 -14 -2 -8 0 -12 4 -7 4 4 17 -1 28 -10 20 -17 20
-17 7 0 -12 15 -12 17 3 11 9 -3 16 -10 16 -15 0 -5 3 -8 8 -8 21 4 43 -2 38
-10 -3 -4 4 -8 17 -7 15 1 21 -4 19 -14 -2 -8 0 -12 4 -7 4 4 16 -1 27 -10 15
-13 18 -14 12 -3 -4 8 4 4 18 -9 15 -14 27 -21 27 -16 0 5 14 -4 32 -21 18
-16 26 -20 18 -9 -8 12 -2 9 16 -8 17 -15 33 -24 37 -20 4 3 7 -1 7 -10 0 -9
6 -16 13 -14 6 1 11 -4 10 -10 -2 -7 3 -12 10 -10 6 1 11 -5 9 -13 -2 -8 0
-12 4 -7 9 8 74 -51 74 -68 0 -6 17 -27 38 -46 l37 -34 -35 40 -35 40 37 -34
c20 -19 36 -39 35 -45 -1 -6 4 -10 10 -9 7 2 12 -3 10 -10 -1 -6 4 -11 11 -9
8 1 11 -2 8 -7 -4 -5 -1 -13 6 -18 7 -4 26 -22 41 -39 21 -23 25 -34 16 -39
-7 -5 -10 -4 -6 2 3 5 -16 32 -43 58 -28 27 -50 45 -50 40 0 -5 -15 5 -32 22
-51 48 -180 153 -188 153 -3 0 -10 -3 -14 -7 -4 -5 -13 -8 -19 -8 -13 0 -73
-114 -92 -175 -1 -3 -4 -12 -8 -20 -21 -55 -32 -177 -17 -195 9 -10 10 -16 10
-38 0 -7 9 -23 20 -34 l19 -21 -65 -31 c-38 -18 -63 -35 -59 -41 4 -6 1 -9 -6
-8 -6 2 -28 -18 -48 -43 -64 -83 -95 -122 -123 -155 -34 -38 -35 -50 -5 -65
12 -7 24 -15 27 -19 8 -11 70 -41 70 -34 0 4 6 2 13 -4 7 -6 37 -13 66 -16 30
-3 58 -9 62 -13 14 -15 42 -214 35 -251 -8 -44 -14 -67 -16 -67 -7 0 -5 -77 2
-81 4 -3 8 -16 8 -29 0 -13 5 -27 10 -30 15 -9 12 -34 -4 -31 -8 1 -20 7 -27
13 -8 6 -18 11 -22 11 -4 0 -33 12 -63 27 -30 15 -60 28 -67 29 -52 8 -236
175 -304 277 -17 25 -38 51 -47 58 -9 7 -13 17 -10 22 3 5 0 9 -5 9 -6 0 -11
8 -11 19 0 10 -8 25 -17 32 -15 11 -16 11 -5 -1 6 -8 12 -18 12 -24 0 -5 -6
-1 -14 10 -8 10 -11 23 -7 27 9 9 -13 62 -29 72 -5 3 -7 14 -5 25 2 10 -3 24
-11 30 -7 7 -11 16 -8 21 3 5 1 8 -4 7 -6 -2 -10 2 -10 7 0 6 5 9 11 7 6 -2 4
5 -6 16 -9 10 -15 21 -12 24 3 2 -1 5 -9 5 -11 0 -15 -23 -6 -34 2 -2 4 -7 5
-13 1 -5 4 -13 5 -17 1 -5 2 -11 1 -15 0 -5 5 -7 12 -5 7 1 12 -7 11 -20 -1
-14 3 -20 10 -16 6 3 8 3 4 -2 -4 -4 -3 -14 3 -22 7 -8 8 -13 1 -13 -8 0 -66
103 -67 120 0 3 -3 10 -6 15 -9 17 -5 55 6 54 6 -1 9 -4 8 -8 -1 -4 5 -8 13
-8 12 0 12 3 -1 17 -8 9 -12 20 -8 25 5 4 2 5 -4 1 -10 -6 -13 13 -13 77 0 69
-3 87 -17 98 -16 12 -17 12 -6 -2 7 -9 10 -19 6 -23 -4 -3 -8 -46 -9 -94 -3
-87 -40 -257 -70 -316 -8 -16 -14 -33 -14 -38 0 -16 -106 -230 -134 -271 -14
-21 -26 -41 -26 -45 0 -4 -11 -19 -24 -35 -13 -15 -34 -43 -47 -62 -37 -54
-39 -51 -43 54 0 22 -4 42 -7 45 -3 4 -5 -12 -4 -34 1 -22 -1 -38 -4 -35 -8 9
-8 95 0 89 9 -5 5 23 -4 32 -4 4 -2 13 4 20 5 7 6 15 1 17 -4 3 -6 52 -4 109
2 56 1 100 -1 98 -23 -24 -33 -465 -13 -556 7 -33 16 -66 20 -72 5 -8 -3 -12
-23 -12 -16 0 -32 4 -36 9 -3 6 -14 8 -25 6 -12 -2 -18 0 -16 4 7 11 -29 43
-37 34 -4 -3 -7 1 -7 10 0 11 -7 15 -20 12 -11 -2 -18 0 -15 5 7 11 -24 42
-36 34 -5 -3 -8 0 -7 8 2 7 -3 12 -10 10 -6 -1 -11 4 -10 10 2 7 -3 12 -11 10
-12 -3 -12 -1 0 14 9 12 9 15 2 10 -8 -4 -13 -2 -13 7 0 7 -13 26 -30 42 -16
16 -30 34 -30 40 0 17 -45 56 -54 48 -4 -5 -6 -3 -4 2 2 6 -1 10 -7 10 -5 0
-9 -3 -7 -8 1 -4 -4 -6 -10 -5 -7 2 -12 -3 -10 -10 1 -6 -4 -11 -10 -10 -7 2
-12 -2 -11 -8 1 -6 -4 -11 -12 -11 -8 0 -13 3 -12 6 1 3 -2 6 -8 6 -5 0 -9 -3
-8 -6 1 -3 -4 -6 -11 -6 -7 0 -13 6 -13 13 0 7 4 12 8 11 4 -1 7 3 7 8 0 6 -3
9 -7 8 -4 -1 -8 4 -8 12 0 8 4 13 8 12 4 -1 7 3 7 8 0 6 -4 9 -9 7 -5 -1 -8 1
-7 5 2 5 -1 8 -7 8 -5 0 -9 -3 -8 -6 1 -3 -5 -6 -13 -6 -7 0 -12 3 -9 5 3 3
-2 13 -11 23 -9 10 -14 24 -11 31 4 9 6 7 6 -4 1 -11 8 -16 20 -13 11 2 25 -3
32 -11 9 -12 15 -12 27 -2 11 9 14 9 9 1 -4 -6 -2 -15 4 -19 7 -4 9 -3 6 3 -3
5 0 10 7 10 7 0 13 -6 13 -13 0 -7 -4 -12 -8 -11 -4 1 -7 -2 -7 -8 0 -5 4 -9
9 -7 5 1 8 -1 7 -5 -2 -5 2 -8 7 -8 6 0 8 5 7 10 -2 6 0 7 4 3 4 -4 13 -3 20
3 14 11 6 32 -25 72 -8 9 -10 17 -6 17 4 0 0 9 -10 20 -10 11 -15 20 -10 20 4
0 2 6 -4 13 -6 8 -7 18 -3 22 4 5 2 5 -4 2 -6 -3 -10 -29 -9 -57 1 -28 -1 -53
-5 -55 -7 -5 -63 49 -61 59 1 3 0 8 0 11 -1 3 -2 10 -3 15 0 6 -4 10 -8 10 -5
0 -11 0 -14 0 -4 0 -1 -6 5 -13 6 -8 7 -18 3 -22 -4 -5 -1 -5 7 0 10 6 12 4 7
-4 -9 -14 -21 -6 -21 12 0 7 -5 12 -12 12 -16 0 -26 12 -31 38 -5 29 -8 39
-16 58 -4 9 -6 20 -5 25 1 5 0 12 -1 17 -1 4 -4 21 -5 37 -1 17 -3 31 -5 33
-1 1 -4 15 -6 30 l-5 28 38 -25 c22 -16 39 -22 42 -15 4 12 -66 79 -74 71 -11
-11 -4 126 10 203 30 169 83 331 158 485 65 135 71 148 58 135 -18 -18 -138
-258 -151 -302 -7 -23 -17 -40 -21 -37 -4 2 -6 -5 -4 -16 2 -11 -2 -26 -10
-34 -8 -7 -12 -16 -9 -19 8 -7 -7 -58 -15 -52 -4 2 -7 -4 -7 -13 0 -54 -5 -82
-15 -82 -5 0 -7 5 -3 12 4 7 3 8 -5 4 -8 -5 -9 -12 -2 -19 13 -17 2 -109 -13
-100 -6 4 -6 1 1 -9 7 -8 10 -18 6 -22 -4 -4 -8 -18 -9 -31 -1 -24 -31 -95
-40 -95 -3 0 -2 5 1 10 10 16 -1 11 -16 -7 -10 -11 -10 -14 -1 -9 19 11 14 -9
-14 -61 -34 -61 -144 -227 -181 -273 -54 -67 -266 -265 -284 -265 -4 0 -11 -3
-15 -8 -23 -23 -30 19 -10 65 4 9 9 23 10 31 1 8 8 22 15 31 7 9 10 16 6 16
-4 0 -1 8 6 17 12 15 12 16 -1 8 -8 -4 -4 4 10 20 14 16 18 25 10 20 -8 -5 -4
4 9 18 14 15 21 27 16 27 -4 0 -2 8 6 18 23 27 82 152 75 159 -3 4 -6 0 -6 -9
0 -8 -9 -23 -20 -33 -11 -10 -20 -22 -20 -27 0 -5 -12 -27 -27 -51 -15 -23
-38 -62 -52 -87 -13 -25 -29 -48 -35 -52 -6 -5 -7 -8 -1 -8 6 0 4 -4 -3 -8 -7
-5 -15 -19 -17 -32 -2 -13 -10 -27 -17 -32 -7 -4 -9 -8 -5 -8 5 0 1 -10 -7
-22 -9 -12 -16 -30 -16 -40 0 -10 -4 -18 -10 -18 -5 0 -10 -9 -10 -19 0 -11
-5 -23 -10 -26 -6 -4 -8 -10 -5 -15 3 -5 1 -11 -5 -15 -6 -4 -8 -11 -5 -16 4
-5 2 -9 -3 -9 -12 0 -44 -99 -35 -113 3 -6 1 -7 -5 -3 -8 5 -12 -1 -12 -16 0
-24 -7 -73 -11 -73 -2 0 -8 -64 -12 -135 -1 -25 1 -60 4 -78 4 -17 3 -34 -2
-37 -10 -7 -1 -34 17 -55 7 -8 13 -18 13 -22 1 -5 1 -9 2 -10 9 -31 5 -34 -45
-34 -40 1 -50 -2 -48 -14 2 -8 0 -12 -4 -8 -4 4 -13 3 -20 -3 -8 -7 -14 -7
-19 1 -4 6 -1 9 7 8 7 -2 12 3 10 10 -1 6 1 11 5 10 5 -2 8 2 8 7 0 6 -12 10
-27 9 -15 0 -26 2 -25 5 1 3 -1 6 -4 6 -3 0 -13 8 -23 18 -10 9 -22 14 -28 11
-7 -4 -8 -2 -4 4 8 13 -48 45 -59 34 -3 -4 -5 0 -3 8 1 8 -3 14 -10 12 -6 -1
-11 4 -10 10 2 7 -3 12 -10 10 -6 -1 -11 4 -10 10 2 7 -3 12 -10 10 -6 -1 -11
4 -10 10 2 7 -3 12 -10 10 -8 -1 -11 2 -8 7 4 5 0 16 -8 24 -8 8 -13 17 -10
19 2 3 -2 11 -10 17 -12 10 -14 9 -11 -6 2 -10 4 -24 4 -31 1 -8 6 -10 14 -6
9 5 9 4 0 -6 -10 -11 -9 -17 4 -32 20 -23 26 -48 10 -45 -7 1 -12 -11 -11 -30
0 -18 -3 -30 -8 -27 -5 3 -5 10 -2 16 4 6 2 8 -4 4 -6 -3 -9 -15 -7 -26 2 -11
-1 -19 -8 -17 -7 1 -11 -3 -10 -9 1 -6 -4 -11 -11 -11 -7 0 -13 6 -13 13 0 7
3 12 6 11 3 -1 7 1 9 6 1 4 -1 7 -4 6 -4 0 -11 5 -15 13 -6 8 -9 -4 -9 -33 0
-49 21 -79 70 -97 23 -9 24 -13 27 -108 1 -54 8 -127 14 -162 7 -37 8 -86 4
-120 -14 -105 -14 -117 0 -165 28 -94 63 -135 165 -189 l65 -34 260 1 c162 0
261 4 262 10 0 6 -3 9 -8 8 -5 -2 -8 0 -6 5 1 4 -2 7 -8 7 -5 0 -9 -3 -8 -6 1
-3 -4 -6 -11 -6 -7 0 -13 6 -13 13 0 7 4 12 8 11 4 -1 7 3 7 8 0 6 -4 9 -9 8
-5 -2 -8 0 -6 5 1 4 -3 7 -8 7 -5 0 -9 -3 -8 -7 2 -5 -1 -7 -6 -5 -5 1 -9 -2
-9 -8 0 -5 3 -9 7 -8 4 1 8 -4 8 -11 0 -7 -6 -13 -13 -13 -7 0 -12 3 -11 6 1
3 -2 6 -8 6 -5 0 -9 -4 -7 -8 1 -5 -2 -6 -7 -3 -5 4 -13 2 -16 -4 -5 -8 -11
-8 -19 -1 -7 6 -16 7 -20 3 -4 -4 -6 -2 -4 3 2 6 -1 10 -7 10 -5 0 -9 -4 -7
-8 1 -5 -2 -6 -7 -3 -5 4 -13 2 -16 -4 -5 -8 -11 -8 -19 -1 -7 6 -16 7 -20 3
-4 -4 -6 0 -4 8 2 8 -3 14 -9 13 -7 -2 -12 3 -10 10 1 6 -4 11 -10 10 -7 -2
-12 0 -10 5 1 4 -3 7 -8 7 -6 0 -10 -12 -9 -26 0 -14 -5 -26 -12 -26 -7 0 -12
3 -11 6 1 3 -3 6 -8 6 -6 0 -9 -3 -8 -6 1 -3 -4 -6 -12 -6 -8 0 -13 3 -12 6 1
3 -3 6 -8 6 -6 0 -9 -4 -7 -8 1 -5 -2 -6 -7 -3 -5 4 -13 2 -16 -4 -5 -8 -11
-8 -20 0 -8 7 -15 7 -19 1 -5 -8 -34 -8 -43 -1 -2 2 -9 3 -15 4 -7 1 -12 7
-11 13 2 7 -6 10 -16 8 -22 -4 -85 27 -120 59 -42 38 -73 96 -87 163 -1 7 2
16 7 19 5 3 8 0 7 -8 -2 -7 3 -12 9 -11 7 2 12 -3 10 -10 -1 -7 7 -11 21 -11
17 1 20 -1 11 -12 -8 -10 -6 -12 10 -9 11 2 20 1 18 -3 -1 -4 2 -8 7 -9 5 -1
12 -6 16 -13 4 -6 13 -12 21 -13 8 -2 20 -7 28 -12 24 -14 153 -12 201 3 57
19 56 17 36 47 -10 15 -16 36 -14 48 1 12 -1 27 -5 34 -4 6 -3 15 3 18 6 4 9
1 8 -7 -2 -7 3 -12 11 -10 11 2 12 0 3 -10 -9 -12 4 -14 81 -13 51 1 100 5
108 10 7 5 24 10 36 11 19 1 21 -2 11 -15 -7 -9 -9 -13 -4 -9 11 9 46 -23 39
-35 -3 -6 -1 -7 4 -4 6 4 14 -1 17 -11 3 -9 13 -28 21 -42 10 -17 11 -28 3
-37 -11 -13 -32 -8 -24 6 3 4 -1 8 -9 8 -8 0 -13 -3 -12 -6 1 -3 -3 -6 -8 -6
-6 0 -9 3 -8 6 1 3 -4 6 -12 6 -8 0 -13 -3 -12 -6 1 -3 -2 -6 -8 -6 -5 0 -9 3
-8 6 1 3 -4 6 -12 6 -8 0 -13 -5 -12 -11 1 -6 -4 -10 -10 -9 -7 2 -12 0 -10
-5 1 -4 -3 -7 -8 -7 -5 0 -9 3 -8 6 1 3 -4 6 -12 6 -8 0 -13 -5 -12 -11 1 -6
-4 -10 -10 -9 -7 2 -12 0 -10 -5 1 -4 -2 -7 -8 -7 -5 0 -9 3 -8 6 1 3 -4 6
-12 6 -8 0 -13 -3 -12 -6 1 -3 -2 -6 -8 -6 -5 0 -9 3 -8 6 1 3 -4 6 -12 6 -8
0 -13 -3 -12 -6 1 -3 -2 -6 -8 -6 -5 0 -9 3 -8 6 1 3 -4 6 -12 6 -8 0 -13 -5
-12 -11 1 -6 -4 -10 -10 -9 -7 2 -12 -3 -10 -10 1 -6 -4 -11 -10 -10 -7 2 -12
0 -10 -5 1 -4 -3 -7 -8 -7 -6 0 -9 3 -8 6 1 3 -4 6 -12 6 -8 0 -13 -3 -12 -6
1 -3 -2 -6 -8 -6 -5 0 -9 3 -8 6 1 3 -4 6 -12 6 -8 0 -13 -3 -12 -6 1 -3 -2
-6 -8 -6 -5 0 -9 3 -8 6 1 3 -4 6 -11 6 -7 0 -13 -6 -13 -13 0 -7 3 -12 6 -11
3 1 6 -3 6 -8 0 -6 -4 -9 -8 -7 -5 1 -5 -2 -2 -8 5 -8 12 -7 23 3 11 9 40 13
84 12 59 -1 66 1 63 17 -3 12 0 16 7 12 6 -4 8 -3 5 2 -3 6 26 10 73 9 47 -1
76 3 73 9 -4 5 -1 6 7 1 9 -6 11 -4 5 6 -7 12 -6 12 7 1 11 -9 18 -10 23 -2 6
10 -1 14 -18 11 -5 -1 -6 2 -3 7 3 5 32 8 66 7 34 -1 64 3 66 7 11 17 31 -13
29 -42 -1 -17 1 -32 5 -35 4 -3 6 -18 5 -35 -4 -51 22 -35 28 16 3 26 20 77
39 113 l35 66 54 0 c39 0 72 -9 122 -32 67 -32 78 -40 107 -77 9 -12 10 -17 2
-12 -7 4 -12 1 -12 -9 0 -9 5 -13 10 -10 5 3 10 2 10 -4 0 -6 -25 -8 -62 -5
-46 4 -59 2 -48 -5 8 -6 29 -11 47 -11 17 0 35 -5 38 -10 4 -6 11 -8 16 -5 5
4 9 -1 9 -10 0 -9 -4 -14 -8 -11 -5 3 -9 -1 -9 -7 0 -7 9 -14 19 -14 16 -2 19
4 17 30 -3 54 0 65 19 62 9 -2 18 -4 20 -5 1 -2 7 -4 12 -5 6 -1 13 -4 18 -5
4 -1 11 -2 16 -1 5 1 6 -16 3 -39 -3 -22 -1 -40 4 -40 5 0 9 5 9 10 0 6 21 8
58 4 40 -5 54 -3 47 4 -5 6 -28 12 -50 14 -38 3 -40 5 -43 39 -5 54 24 84 79
82 24 -1 77 -2 116 -3 47 -1 77 -6 87 -15 7 -8 16 -11 20 -8 3 4 6 -1 6 -9 0
-9 7 -21 15 -28 8 -7 13 -16 10 -20 -3 -4 2 -13 9 -20 8 -6 13 -19 11 -28 -3
-15 6 -18 65 -18 l68 0 -8 27 c-10 35 -2 44 22 22 15 -14 19 -14 16 -3 -2 8 2
14 8 13 6 -1 11 4 11 12 0 8 -3 13 -6 12 -3 -1 -6 3 -6 8 0 6 3 9 7 8 5 -2 7
0 5 5 -1 4 3 7 8 7 6 0 9 -3 8 -6 -1 -3 4 -6 12 -6 8 0 13 5 12 11 -1 6 4 10
10 9 7 -2 12 0 10 5 -1 4 3 7 8 7 5 0 9 -3 8 -6 -1 -3 4 -6 12 -6 8 0 13 5 12
11 -1 6 3 10 9 9 6 -1 11 4 11 11 0 7 -6 13 -13 13 -7 0 -12 -4 -11 -8 1 -4
-2 -7 -8 -7 -5 0 -9 4 -8 9 2 5 0 8 -5 6 -4 -1 -7 3 -7 8 0 6 3 9 7 8 5 -2 7
1 5 6 -1 5 3 9 8 9 6 0 9 -3 8 -7 -1 -4 4 -8 12 -8 8 0 12 4 9 8 -2 4 0 11 6
14 8 5 8 11 0 20 -8 10 -8 15 0 20 8 5 8 11 1 19 -6 7 -7 16 -3 20 4 4 2 6 -3
4 -6 -2 -10 2 -10 7 0 6 4 9 8 7 5 -1 6 2 3 7 -4 5 -2 13 4 16 8 5 8 11 1 19
-6 7 -9 15 -6 18 3 2 -1 5 -8 5 -8 0 -14 -6 -14 -13 0 -7 3 -12 6 -11 3 1 6
-2 6 -8 0 -5 -3 -9 -7 -8 -5 2 -7 -1 -5 -6 1 -5 -2 -9 -8 -9 -5 0 -9 4 -8 9 2
5 0 8 -5 6 -4 -1 -7 3 -7 8 0 6 3 9 6 8 3 -1 6 4 6 11 0 7 -6 13 -13 13 -7 0
-12 -3 -11 -6 1 -3 -2 -6 -8 -6 -5 0 -9 3 -8 6 1 3 -4 6 -11 6 -7 0 -13 -6
-13 -13 0 -7 3 -12 6 -11 3 1 6 -2 6 -8 0 -5 -3 -9 -7 -8 -5 2 -7 0 -5 -5 1
-4 -2 -7 -8 -7 -5 0 -9 3 -8 7 2 5 0 7 -5 5 -4 -1 -7 3 -7 8 0 6 3 9 6 8 3 -1
6 4 6 11 0 7 -6 13 -13 13 -7 0 -12 -3 -11 -6 1 -3 -2 -6 -8 -6 -5 0 -9 3 -7
8 1 4 -4 6 -10 5 -7 -2 -12 3 -10 10 1 6 -4 11 -10 10 -7 -2 -12 3 -10 10 1 6
-1 11 -5 10 -5 -2 -8 2 -8 7 0 6 3 9 8 7 4 -1 6 1 5 5 -2 5 2 8 7 8 6 0 9 -3
8 -6 -1 -3 4 -6 11 -6 7 0 13 6 13 13 0 7 -5 12 -11 11 -6 -1 -10 4 -8 11 1 6
-4 11 -10 10 -7 -2 -12 3 -10 10 1 6 -4 11 -10 10 -7 -2 -12 3 -10 10 1 6 -4
11 -10 10 -7 -2 -12 2 -11 8 1 6 -4 11 -11 11 -7 0 -13 -6 -13 -13 0 -7 3 -12
6 -11 3 1 6 -2 6 -8 0 -5 -3 -9 -7 -8 -8 3 -5 -18 7 -37 5 -9 0 -8 -13 4 -12
10 -19 23 -15 29 3 5 1 7 -5 3 -6 -3 -16 0 -24 7 -7 7 -22 13 -33 13 -11 0
-19 5 -18 10 1 6 -4 11 -11 11 -7 0 -13 -6 -13 -13 0 -7 4 -11 9 -8 4 3 8 0 8
-5 0 -10 -15 -15 -23 -8 -3 3 -35 -27 -35 -33 1 -26 -4 -40 -12 -35 -6 4 -8
10 -6 14 3 4 -1 8 -8 8 -7 0 -13 -6 -13 -13 0 -7 5 -12 11 -11 5 1 12 -7 14
-18 4 -16 2 -17 -10 -7 -12 9 -15 9 -15 -2 0 -8 8 -13 19 -11 16 4 23 -11 19
-38 0 -4 3 -6 8 -5 5 2 9 -1 9 -7 0 -5 -4 -9 -9 -7 -5 1 -8 -1 -6 -6 1 -4 -2
-7 -8 -7 -5 0 -9 3 -8 6 1 3 -4 6 -12 6 -8 0 -13 -3 -12 -6 1 -3 -2 -6 -8 -6
-5 0 -9 3 -8 6 1 3 -4 6 -12 6 -8 0 -13 -3 -12 -6 1 -3 -2 -6 -8 -6 -5 0 -9 3
-8 6 1 3 -4 6 -12 6 -8 0 -13 -3 -12 -6 1 -3 -2 -6 -8 -6 -5 0 -9 3 -8 6 1 3
-4 6 -12 6 -8 0 -13 -3 -12 -6 1 -3 -2 -6 -8 -6 -5 0 -9 3 -8 6 1 3 -4 6 -11
6 -7 0 -13 -6 -13 -13 0 -7 3 -12 6 -11 3 1 6 -2 6 -8 0 -5 -3 -9 -7 -8 -5 2
-7 0 -5 -5 1 -4 -2 -7 -8 -7 -5 0 -9 3 -8 7 2 5 0 7 -5 5 -4 -1 -7 3 -7 8 0 6
3 9 6 8 3 -1 6 4 6 11 0 7 -6 13 -13 13 -7 0 -12 -3 -11 -6 1 -3 -3 -6 -8 -6
-5 0 -9 3 -8 8 2 4 -1 6 -6 5 -5 -2 -9 2 -9 7 0 6 4 9 9 7 5 -1 8 1 7 5 -2 5
2 8 7 8 6 0 9 -3 8 -6 -1 -3 4 -6 11 -6 7 0 13 6 13 13 0 7 -4 12 -8 11 -4 -1
-7 3 -7 8 0 6 3 9 7 8 4 -1 8 4 8 11 0 7 -6 13 -13 13 -7 0 -12 -3 -11 -6 1
-3 -2 -6 -8 -6 -5 0 -9 3 -8 6 1 3 -4 6 -11 6 -7 0 -13 -6 -13 -13 0 -7 4 -12
8 -11 4 1 7 -2 7 -8 0 -5 -4 -9 -9 -7 -5 1 -8 -1 -7 -5 2 -5 -1 -8 -7 -8 -5 0
-9 3 -7 8 1 4 -2 6 -7 5 -5 -2 -9 2 -9 7 0 6 3 9 7 8 4 -1 8 4 8 11 0 7 -6 13
-13 13 -7 0 -12 -3 -11 -6 1 -3 -2 -6 -8 -6 -5 0 -9 3 -7 8 1 4 -1 6 -5 5 -5
-2 -8 2 -8 7 0 6 3 9 6 8 3 -1 6 4 6 11 0 7 -6 13 -13 13 -7 0 -12 -5 -11 -11
1 -6 -4 -10 -11 -8 -8 1 -11 -2 -8 -7 4 -5 2 -13 -4 -16 -8 -5 -7 -11 1 -21
10 -12 6 -18 -12 -16 -3 1 -6 -5 -6 -13 0 -8 3 -13 6 -12 3 1 6 -2 6 -8 0 -5
-3 -9 -7 -7 -5 1 -7 -1 -5 -6 1 -4 -2 -7 -8 -7 -5 0 -9 3 -8 6 1 3 -4 6 -11 6
-7 0 -13 -6 -13 -13 0 -7 4 -12 8 -11 4 1 7 -2 7 -8 0 -5 -4 -9 -9 -8 -5 2 -8
0 -6 -5 1 -4 -2 -7 -8 -7 -5 0 -9 3 -8 7 2 5 -1 7 -6 5 -5 -1 -9 3 -9 8 0 6 4
9 8 8 5 -2 7 6 5 17 -4 18 10 26 38 21 5 -1 6 3 3 8 -3 5 0 14 8 20 8 6 13 30
13 54 0 26 4 41 12 39 6 -1 10 1 9 5 -2 5 2 8 7 8 6 0 9 -3 8 -6 -1 -3 4 -6
11 -6 7 0 13 6 13 13 0 7 -4 11 -8 8 -4 -2 -11 0 -14 6 -5 8 -11 8 -19 1 -7
-6 -17 -7 -21 -3 -5 4 -5 1 0 -7 6 -10 4 -12 -4 -7 -9 6 -8 13 5 27 9 10 22
15 28 12 13 -8 49 -12 156 -16 74 -3 105 -11 96 -26 -3 -4 1 -8 9 -8 8 0 13 3
12 6 -1 3 3 6 8 6 6 0 9 -3 8 -6 -1 -3 4 -6 12 -6 8 0 13 3 12 6 -1 3 3 6 8 6
6 0 9 -3 8 -6 -1 -3 4 -6 11 -6 7 0 13 6 13 13 0 7 -4 11 -8 8 -4 -2 -11 0
-14 6 -5 8 -11 8 -20 0 -10 -8 -15 -8 -20 0 -5 8 -10 8 -20 0 -9 -8 -15 -8
-20 0 -7 11 -6 12 34 14 16 0 33 4 37 8 4 4 14 2 22 -5 9 -7 13 -7 9 -1 -11
19 26 41 63 38 19 -2 58 -5 87 -7 30 -1 59 -10 70 -19 10 -9 23 -18 28 -20 6
-2 9 -6 8 -9 -1 -4 8 -6 20 -5 12 0 21 -4 20 -10 -1 -6 24 -10 68 -9 50 1 69
-3 70 -12 2 -17 4 -24 14 -47 5 -11 9 -76 9 -145 0 -141 -15 -187 -74 -233
l-30 -24 218 -1 219 -1 12 34 c13 37 4 66 -28 83 -9 6 -51 9 -92 8 -43 -1 -74
2 -75 8 -1 6 71 29 160 51 89 23 180 50 203 59 44 19 93 14 93 -8 0 -25 -72
-132 -123 -185 -50 -50 -51 -52 -24 -50 16 1 34 9 40 18 11 13 10 13 -8 0 -11
-8 -2 5 20 28 21 23 40 42 40 42 1 0 2 -6 2 -14 0 -8 -5 -14 -11 -13 -6 1 -10
-4 -9 -10 2 -7 0 -12 -5 -10 -4 1 -8 -1 -9 -6 -7 -20 0 -18 27 8 16 15 27 31
25 35 -3 4 5 7 18 6 13 -1 21 4 20 11 -2 7 3 12 10 10 6 -1 11 3 10 8 -1 6 17
11 42 10 24 0 41 -3 38 -7 -8 -14 155 -15 184 -3 10 5 27 9 38 10 11 0 19 6
18 12 -1 6 6 10 15 10 9 0 24 1 33 2 19 1 61 40 55 50 -3 4 1 8 8 8 7 0 13 -6
13 -13 0 -7 -5 -10 -10 -7 -6 3 -7 1 -3 -5 4 -7 18 -12 32 -12 13 0 24 -6 24
-13 0 -9 12 -13 38 -12 53 2 63 -3 58 -34 -18 -115 -18 -116 -5 -103 10 9 15
48 17 125 4 103 6 114 33 153 54 79 100 255 114 440 4 44 1 151 -5 237 -6 93
-7 164 -2 174 11 18 18 -18 27 -142 6 -69 33 -295 52 -435 3 -25 6 -119 5
-210 0 -149 -6 -215 -28 -319 -5 -23 -4 -32 3 -28 6 4 19 49 29 99 14 73 18
138 17 305 -1 117 -4 216 -7 222 -4 5 -2 12 3 15 5 4 8 14 6 24 -1 9 2 27 6
40 7 17 6 21 -4 16 -9 -5 -9 -4 1 7 13 15 17 43 4 35 -5 -3 -9 1 -9 9 0 8 4
12 9 9 4 -3 8 14 9 38 1 62 5 93 12 112 5 12 3 15 -6 10 -8 -5 -7 -2 2 9 11
13 14 71 16 262 1 137 -2 248 -7 251 -5 3 -5 11 0 17 10 14 10 127 -1 144 -4
6 -4 14 0 16 13 8 7 95 -7 111 -7 9 -9 16 -4 16 12 0 -28 35 -51 45 -11 4 -22
8 -25 7 -10 -1 -10 47 0 53 6 4 8 10 5 15 -4 7 24 6 33 0 1 -2 11 -3 22 -4 19
-1 25 -15 13 -26 -4 -3 -2 2 2 10 8 13 6 13 -7 2 -12 -9 -18 -10 -23 -2 -5 8
-11 8 -19 1 -7 -6 -15 -8 -19 -5 -3 3 -4 -2 -2 -13 1 -10 8 -17 15 -15 6 1 9
-2 6 -6 -3 -5 4 -9 17 -8 13 1 21 -4 19 -12 -1 -8 2 -11 9 -6 8 5 9 3 4 -6 -5
-8 -4 -11 3 -6 7 4 10 -1 7 -14 -2 -11 0 -18 4 -16 9 6 8 46 -2 62 -3 6 -3 14
0 18 12 11 14 48 3 61 -5 6 -7 15 -3 19 9 9 12 226 3 226 -4 0 -10 -3 -14 -7
-4 -5 -12 -9 -17 -9 -5 -1 -11 -3 -14 -4 -3 -1 -18 -4 -35 -5 -44 -4 -44 -4
-30 -20 7 -8 9 -15 5 -15 -4 0 -3 -6 2 -12 8 -11 10 -92 3 -100 -1 -2 -3 -16
-6 -33 -4 -32 -11 -68 -14 -72 -2 -2 -4 -7 -5 -13 -1 -5 -4 -12 -5 -15 -1 -3
-3 -8 -5 -12 -7 -26 -25 -62 -35 -68 -5 -3 -8 -10 -6 -14 3 -4 -4 -17 -14 -29
-11 -12 -20 -25 -20 -30 0 -5 -11 -19 -25 -32 -13 -12 -22 -28 -18 -34 3 -6
-10 4 -30 23 -20 19 -35 39 -34 45 1 6 -4 10 -11 8 -6 -1 -11 4 -10 10 2 7 -3
12 -10 10 -6 -1 -11 4 -10 10 2 7 -3 12 -10 10 -6 -1 -11 4 -10 10 2 7 -3 12
-10 10 -6 -1 -11 4 -10 10 2 7 -3 12 -10 10 -6 -1 -11 4 -10 10 2 7 -3 12 -9
10 -7 -1 -13 3 -13 10 0 6 -9 21 -20 33 -11 11 -21 30 -23 40 -1 11 -7 26 -11
34 -5 8 -10 40 -10 70 -2 77 -14 92 -55 67 -16 -11 -131 -16 -146 -7 -5 3 -13
6 -17 7 -5 1 -9 3 -10 4 -2 1 -16 3 -31 5 -16 1 -33 8 -38 16 -5 8 -9 10 -9 5
0 -6 -13 2 -28 17 -16 15 -31 25 -34 21 -4 -3 -5 1 -4 10 1 9 14 29 29 44 15
15 27 33 27 38 0 6 9 19 20 29 11 10 20 23 20 30 0 13 107 122 114 115 2 -3
13 4 25 14 12 11 21 16 21 11 0 -4 7 -2 15 5 8 7 15 9 15 5 0 -4 7 -2 15 5 14
12 13 16 -6 37 -13 12 -19 23 -14 23 4 0 0 9 -10 20 -9 10 -15 26 -12 34 3 8
3 17 -1 20 -23 24 2 182 35 219 9 9 13 17 8 17 -4 0 -2 7 5 15 7 8 9 15 5 15
-5 0 0 9 10 20 10 11 15 20 10 20 -4 0 -3 6 3 13 6 6 11 15 11 20 2 14 17 5
64 -38 26 -25 47 -42 47 -38 0 4 16 -8 35 -27 18 -18 33 -36 32 -39 -1 -3 1
-6 5 -6 23 0 123 -124 106 -131 -2 -1 6 -11 16 -23 11 -12 16 -21 11 -21 -4 0
-2 -6 4 -14 7 -8 10 -26 7 -40 -6 -32 7 -40 67 -42 47 -1 62 -7 62 -25 0 -5 5
-8 10 -6 6 1 9 6 7 11 -2 5 4 4 12 -4 9 -7 16 -9 16 -4 0 4 5 3 12 -4 7 -7 16
-12 20 -12 12 0 10 258 -2 265 -6 4 -7 12 -3 18 12 19 10 51 -5 69 -10 12 -11
18 -1 24 8 5 10 3 4 -6 -5 -9 -4 -11 3 -6 13 8 16 36 5 36 -5 0 -34 -13 -65
-29 l-58 -28 0 61 c-1 126 -34 400 -66 541 -14 61 -28 125 -31 142 -4 24 -10
32 -24 30 -10 -2 -22 -6 -25 -10 -4 -4 -13 -2 -20 4 -8 7 -14 7 -19 -1 -5 -8
-10 -8 -20 0 -10 8 -15 8 -20 0 -5 -8 -10 -8 -20 0 -9 7 -15 8 -20 1 -4 -7
-12 -7 -24 1 -15 9 -26 5 -63 -20 -75 -51 -245 -220 -287 -283 l-39 -60 -23
48 c-12 26 -52 98 -89 158 -36 61 -72 122 -79 138 -8 15 -20 27 -28 27 -17 0
-17 -15 2 -30 8 -7 13 -16 10 -20 -3 -4 2 -14 11 -21 16 -13 33 -47 30 -61 0
-3 10 -18 23 -32 14 -14 21 -26 17 -26 -4 0 2 -10 13 -22 11 -11 18 -24 16
-28 -3 -4 2 -13 10 -20 8 -7 15 -18 15 -25 0 -7 7 -18 15 -25 9 -7 13 -15 10
-18 -3 -3 0 -11 7 -19 8 -11 7 -12 -6 -7 -10 4 -15 13 -11 22 4 12 3 12 -9 3
-9 -8 -16 -8 -20 -2 -4 6 -13 8 -21 4 -8 -3 -15 0 -15 7 0 6 -4 9 -9 6 -4 -3
-16 3 -25 13 -11 13 -14 21 -7 26 11 6 15 -1 12 -18 -1 -5 4 -5 10 -1 7 4 9 3
5 -4 -4 -7 1 -10 14 -7 11 2 18 0 15 -5 -7 -11 22 -7 32 5 4 4 3 5 -4 1 -8 -4
-11 0 -8 14 3 13 0 18 -7 14 -7 -5 -8 -2 -3 6 6 9 4 11 -5 5 -9 -5 -11 -4 -6
4 4 6 4 11 -1 10 -20 -4 -24 2 -12 18 12 14 12 16 0 8 -10 -6 -12 -4 -6 5 5 8
4 11 -2 7 -13 -8 -46 27 -36 38 5 4 3 5 -4 1 -8 -4 -11 0 -8 14 3 13 0 18 -7
14 -7 -5 -8 -2 -3 6 6 9 4 11 -5 5 -10 -6 -11 -4 -4 6 4 8 9 20 10 27 2 11 0
11 -14 0 -12 -10 -14 -10 -8 0 4 7 3 11 -4 10 -7 -2 -14 5 -15 15 -2 9 0 15 4
12 4 -2 8 2 8 10 0 11 -4 12 -13 4 -8 -6 -14 -6 -18 0 -4 5 -2 13 4 16 8 5 7
11 -1 21 -8 10 -15 11 -24 4 -7 -6 -16 -7 -19 -2 -6 10 -257 14 -253 4 1 -5
-21 -34 -50 -67 -45 -50 -54 -56 -68 -45 -9 7 -15 9 -13 4 2 -5 -1 -10 -7 -11
-5 -2 -10 6 -10 16 0 11 -3 23 -7 27 -13 12 -10 21 18 53 14 17 21 31 16 31
-6 0 -28 -21 -50 -47z m424 24 c4 -4 13 -2 20 4 8 6 14 6 18 0 4 -5 1 -13 -4
-16 -8 -5 -6 -13 6 -26 9 -10 13 -19 9 -19 -4 0 0 -9 10 -20 10 -11 23 -17 29
-13 6 3 6 0 -1 -7 -10 -11 -9 -17 4 -32 9 -10 12 -18 8 -18 -5 0 6 -16 25 -35
19 -19 30 -35 25 -35 -5 0 4 -13 19 -29 31 -32 12 -39 -22 -8 -10 9 -22 14
-25 10 -8 -7 -37 28 -31 38 2 3 -8 17 -21 29 -14 13 -25 27 -25 32 0 5 -9 18
-20 30 -10 12 -17 24 -15 28 2 4 -7 18 -20 30 -14 13 -25 29 -25 37 0 7 -4 13
-10 13 -5 0 -10 4 -10 8 0 10 46 9 56 -1z m699 3 c5 8 10 8 20 0 10 -8 15 -8
20 0 5 8 10 8 20 0 10 -8 15 -8 20 0 5 8 10 8 20 0 10 -8 15 -8 20 0 10 16 34
-6 30 -28 -1 -9 0 -21 4 -27 3 -5 6 -18 7 -27 1 -10 3 -20 4 -23 1 -3 4 -9 5
-15 1 -5 4 -12 5 -15 1 -3 4 -14 5 -25 1 -11 3 -21 5 -22 4 -6 11 -45 14 -83
2 -22 5 -41 6 -42 2 -2 4 -16 5 -33 1 -16 4 -32 5 -35 1 -3 3 -22 4 -42 1 -21
4 -42 7 -48 4 -5 7 -41 8 -80 6 -294 6 -347 -3 -352 -5 -3 -6 -2 -3 4 4 5 -6
22 -21 36 -26 25 -27 30 -27 124 1 54 -1 103 -4 108 -3 6 -6 37 -7 70 -1 33
-3 61 -4 63 -2 1 -4 16 -5 32 -1 17 -4 31 -5 33 -2 1 -4 18 -5 37 -2 19 -4 36
-5 38 -2 1 -4 16 -5 32 -1 17 -4 31 -5 33 -2 1 -4 18 -5 37 -2 19 -4 36 -5 38
-2 1 -4 7 -5 12 -1 6 -4 11 -5 13 -2 1 -3 16 -4 34 -1 17 -8 38 -15 47 -7 9
-11 22 -8 30 7 18 -18 42 -28 26 -3 -6 -11 -8 -16 -5 -5 4 -9 -1 -9 -10 0 -9
-4 -14 -8 -11 -5 3 -33 -19 -62 -49 -29 -30 -57 -52 -62 -49 -4 3 -8 -1 -8 -9
0 -25 -46 -56 -82 -53 -18 1 -33 7 -33 12 0 17 -16 34 -26 29 -5 -4 -9 0 -9 8
0 19 165 165 181 160 3 -1 15 7 24 17 13 15 22 17 31 9 8 -7 14 -7 19 1z
m-1110 -88 c-4 -25 15 -45 31 -32 22 19 10 -17 -16 -45 -13 -14 -20 -25 -16
-25 4 0 4 -5 1 -11 -5 -7 -14 -4 -26 7 -10 9 -19 14 -19 9 0 -4 -6 -2 -13 4
-8 6 -18 7 -23 3 -4 -4 -2 1 5 11 7 9 10 17 5 17 -4 0 3 11 16 25 13 14 20 25
15 25 -4 0 0 9 10 20 20 22 35 19 30 -8z m-677 -82 c1 -1 17 -3 35 -4 17 -1
31 -7 30 -12 -1 -6 4 -11 12 -11 8 0 12 4 9 9 -3 4 2 8 10 8 8 0 18 -5 21 -10
4 -6 9 -9 13 -6 4 2 16 0 27 -5 18 -7 17 -8 -7 -10 -49 -3 -62 -6 -88 -16 -30
-12 -56 -10 -52 6 1 6 -1 10 -5 9 -5 -2 -8 2 -8 7 0 6 4 9 8 7 5 -1 6 2 2 8
-5 8 -11 7 -21 -1 -12 -10 -18 -6 -16 12 1 3 -5 6 -13 6 -8 0 -13 -3 -12 -6 1
-3 -2 -6 -8 -6 -5 0 -9 3 -8 6 1 3 -4 6 -11 6 -7 0 -13 -6 -13 -13 0 -7 3 -12
6 -11 3 1 7 -2 8 -8 0 -5 -2 -9 -6 -8 -4 1 -8 -4 -8 -11 0 -7 6 -13 13 -13 7
0 12 4 11 8 -1 4 3 6 8 6 6 -1 9 -5 8 -8 -1 -3 4 -6 12 -6 8 0 13 4 12 8 -1 4
3 7 8 7 6 0 9 -4 7 -10 -1 -5 2 -7 8 -3 5 3 10 1 10 -4 0 -11 -5 -13 -37 -14
-10 -1 -20 -4 -23 -8 -9 -12 -55 -15 -53 -3 1 6 -4 11 -11 11 -7 0 -13 -6 -13
-13 0 -7 4 -11 9 -8 4 3 8 3 8 1 0 -3 -31 -21 -70 -40 -55 -27 -72 -32 -80
-22 -8 9 -6 17 5 28 8 9 15 20 15 25 0 13 45 53 53 47 4 -3 5 -2 2 2 -3 4 8
21 25 38 28 29 34 31 97 29 38 -1 69 -2 71 -4z m-34 -41 c-3 -5 -10 -7 -15 -3
-5 3 -7 10 -3 15 3 5 10 7 15 3 5 -3 7 -10 3 -15z m1557 -3 c-6 -7 -7 -17 -3
-21 4 -5 1 -5 -7 0 -10 6 -12 4 -6 -5 6 -9 4 -11 -6 -5 -11 7 -12 6 -2 -7 17
-19 4 -31 -16 -16 -9 7 -13 8 -9 4 4 -5 3 -15 -3 -23 -6 -7 -8 -13 -4 -13 5 0
0 -9 -10 -20 -10 -11 -22 -17 -26 -14 -5 3 -9 -2 -9 -11 0 -9 4 -14 9 -10 5 3
12 1 16 -5 4 -6 11 -7 17 -4 6 4 8 3 5 -3 -3 -5 0 -10 7 -10 7 0 13 10 12 21
-1 13 4 20 12 18 8 -1 11 2 6 9 -4 7 -3 9 4 5 7 -4 10 1 7 14 -3 14 0 18 8 14
7 -4 9 -4 5 1 -4 4 -3 14 3 22 6 7 8 13 4 13 -4 0 -1 8 6 17 8 10 9 14 2 10
-18 -11 -25 9 -8 23 8 7 15 10 15 6 0 -29 17 -45 43 -41 16 4 12 -5 -22 -39
-24 -24 -42 -46 -40 -49 2 -3 -8 -19 -23 -36 -26 -28 -58 -34 -58 -9 0 5 -4 7
-9 3 -5 -3 -16 1 -24 9 -8 8 -18 12 -23 8 -5 -4 -2 2 6 13 8 11 20 23 25 27 6
4 10 11 10 17 0 5 17 27 38 50 20 22 37 45 37 51 0 6 5 8 10 5 8 -5 8 -11 1
-19z m5 -40 c-1 -8 -8 -21 -15 -30 -7 -9 -10 -16 -5 -16 4 0 -2 -10 -14 -23
-12 -13 -19 -26 -16 -29 3 -4 -2 -5 -13 -3 -10 2 -20 4 -22 4 -3 1 6 13 20 27
13 14 23 29 22 32 -2 4 1 7 6 7 11 0 26 13 27 26 2 15 4 19 8 19 2 0 3 -6 2
-14z m-1862 -98 c-6 -11 -5 -11 8 0 11 9 18 10 23 2 3 -6 12 -7 18 -3 8 4 7 1
-1 -9 -7 -9 -22 -15 -32 -13 -11 2 -19 1 -17 -3 1 -4 -2 -7 -8 -7 -5 0 -9 3
-8 6 1 3 -4 6 -11 6 -7 0 -13 -6 -13 -13 0 -7 4 -11 9 -8 4 3 8 0 8 -5 0 -10
-14 -15 -33 -12 -5 1 -6 -3 -2 -9 5 -8 -22 -25 -48 -29 -4 0 -23 -15 -43 -33
-20 -18 -40 -33 -44 -33 -5 0 -12 -3 -16 -7 -11 -11 -24 -10 -24 3 0 5 5 7 10
4 6 -4 9 -1 8 7 -2 7 3 12 10 11 6 -2 11 1 10 6 -2 5 2 8 7 8 6 -1 9 -6 7 -10
-1 -5 2 -6 8 -2 8 5 8 11 0 20 -7 8 -7 15 -1 19 5 4 13 1 16 -4 5 -8 13 -6 24
4 10 9 21 13 26 9 4 -5 5 -2 0 6 -5 10 -4 12 4 7 7 -5 10 -2 9 6 -2 7 3 12 10
11 6 -2 11 3 10 10 -2 6 2 11 8 10 6 -1 11 4 11 12 0 8 -5 13 -11 12 -6 -1
-10 3 -9 9 1 6 -4 11 -12 11 -8 0 -13 -3 -12 -6 1 -3 -2 -6 -8 -6 -5 0 -9 3
-8 6 1 3 -4 6 -12 6 -8 0 -13 -4 -12 -8 1 -4 -2 -7 -8 -7 -5 0 -9 5 -7 11 2 7
-2 6 -11 -1 -8 -7 -17 -10 -20 -7 -4 3 -5 2 -2 -2 3 -3 0 -12 -7 -20 -6 -8 -7
-13 -2 -11 5 2 9 -1 9 -7 0 -5 -3 -9 -7 -7 -5 1 -7 -4 -5 -10 1 -7 -5 -11 -13
-10 -8 2 -12 0 -7 -4 4 -4 -1 -16 -10 -26 -10 -11 -13 -18 -8 -16 6 2 10 -1
10 -7 0 -5 -4 -9 -8 -7 -5 1 -6 -2 -3 -7 4 -5 2 -12 -3 -15 -17 -11 -20 10 -6
37 8 15 11 27 8 27 -3 0 1 7 8 16 7 9 14 23 15 32 2 8 9 19 16 23 7 5 9 9 4 9
-5 0 -4 6 2 13 16 19 207 24 196 5z m-139 -28 c3 6 11 8 16 4 15 -9 0 -23 -20
-19 -13 2 -18 -2 -17 -18 1 -13 -4 -21 -12 -19 -8 1 -11 -2 -8 -6 7 -12 -28
-44 -37 -35 -4 4 7 21 24 39 20 20 27 34 20 39 -6 3 -9 11 -5 16 4 6 11 6 19
-1 9 -8 15 -8 20 0z m29 -41 c-20 -21 -41 -36 -46 -33 -4 3 -6 10 -2 15 3 5
11 6 17 2 8 -5 8 -2 0 9 -17 19 -4 31 16 16 9 -7 13 -8 8 -3 -9 11 23 46 35
39 6 -4 -7 -24 -28 -45z m-417 -79 c-1 -3 3 -6 8 -6 6 -1 9 1 8 5 -3 11 144 4
185 -8 1 -1 4 0 6 2 2 1 13 -6 23 -16 11 -9 22 -15 25 -12 3 3 11 -3 19 -12 7
-10 9 -15 4 -10 -5 4 -28 -11 -51 -34 -26 -26 -44 -37 -49 -30 -9 15 -25 4
-19 -13 3 -7 -10 -26 -28 -41 -18 -15 -78 -71 -134 -126 -95 -93 -137 -123
-115 -81 5 9 14 37 21 62 16 62 115 164 151 156 4 0 15 6 25 15 11 9 31 15 46
14 23 -2 26 1 17 12 -8 9 -15 10 -24 3 -9 -8 -15 -8 -20 0 -3 6 -11 8 -16 4
-5 -3 -7 -9 -5 -13 3 -4 -1 -8 -9 -8 -8 0 -13 5 -12 11 1 6 -4 10 -11 8 -8 -1
-11 2 -8 7 4 5 2 12 -4 16 -6 4 -8 10 -5 15 3 5 1 11 -4 15 -5 3 -8 14 -6 24
3 15 -1 19 -16 16 -12 -3 -17 0 -13 7 5 7 2 8 -6 3 -8 -5 -11 -4 -7 1 3 6 -5
10 -18 10 -13 0 -21 -4 -19 -8 3 -5 9 -6 14 -3 4 3 13 -2 20 -10 7 -8 16 -12
21 -9 5 3 9 -2 9 -10 0 -9 0 -18 0 -21 0 -3 9 -21 20 -41 11 -19 16 -33 10
-29 -5 3 -10 2 -10 -3 0 -6 -7 -13 -16 -16 -8 -3 -12 -2 -9 4 6 9 -7 13 -47
13 -9 0 -16 5 -15 11 1 6 -4 10 -10 9 -7 -2 -13 4 -13 13 0 9 -5 12 -12 8 -10
-6 -10 -4 0 8 8 10 9 19 3 22 -5 4 -8 15 -6 26 2 11 -1 23 -7 26 -6 4 -8 2 -4
-4 3 -6 2 -13 -4 -17 -6 -4 -8 -10 -6 -14 3 -4 -1 -8 -8 -8 -7 0 -13 6 -13 13
0 7 4 12 8 11 4 -1 7 3 8 8 0 6 -21 10 -49 10 -27 -1 -47 2 -44 5 3 3 32 5 65
6 32 0 61 3 63 5 7 6 95 6 93 -1z m-200 -45 c0 -6 -6 -12 -12 -12 -6 0 -12 6
-12 12 0 6 6 12 12 12 6 0 12 -6 12 -12z m40 0 c0 -6 -6 -12 -12 -12 -6 0 -12
6 -12 12 0 6 6 12 12 12 6 0 12 -6 12 -12z m-2 -55 c-2 -4 6 -18 18 -31 26
-30 47 -65 47 -79 0 -7 -25 -10 -67 -8 l-67 3 -27 52 c-15 29 -23 55 -18 60 9
9 120 12 114 3z m3165 -150 c0 -5 5 -9 12 -7 13 2 19 -42 7 -58 -4 -5 -8 -13
-8 -17 -1 -5 -3 -7 -5 -5 -3 1 -16 -9 -30 -22 -14 -14 -26 -21 -26 -16 0 4 -8
1 -18 -8 -18 -16 -18 -14 -19 44 0 37 3 56 8 47 8 -12 10 -11 13 12 0 6 12 17
26 24 31 17 40 19 40 6z m-3183 -62 c23 -23 40 -45 37 -50 -5 -8 -45 -27 -69
-34 -5 -1 -17 -5 -26 -9 -12 -4 -27 7 -53 36 -45 53 -46 73 -3 86 58 16 71 13
114 -29z m3020 -93 c0 -8 -4 -12 -9 -9 -5 3 -6 10 -3 15 9 13 12 11 12 -6z
m21 -57 c-2 -7 2 -12 8 -11 6 1 11 -4 11 -12 0 -8 -5 -11 -11 -8 -6 4 -5 -1 3
-11 13 -15 13 -19 1 -26 -8 -5 -15 -8 -17 -7 -6 7 -13 69 -8 78 9 13 15 11 13
-3z m-1151 -495 c6 -13 7 -21 2 -17 -5 3 -9 -2 -9 -11 0 -9 5 -13 11 -9 6 3
10 -1 9 -12 -4 -36 0 -51 13 -51 8 0 14 6 14 13 0 7 -4 12 -8 11 -4 -1 -7 1
-8 6 -2 16 15 8 25 -12 6 -11 18 -29 27 -39 10 -10 17 -29 18 -43 0 -13 3 -19
5 -12 6 13 94 -78 94 -96 0 -7 -5 -9 -10 -6 -6 4 -8 11 -4 16 3 5 0 8 -8 7 -7
-2 -12 3 -11 9 2 7 -3 12 -10 10 -6 -1 -11 3 -10 10 2 7 -6 10 -17 8 -12 -2
-18 0 -15 5 3 5 1 11 -4 14 -13 8 -11 -55 1 -71 12 -14 32 -7 22 8 -3 5 -11 6
-17 2 -8 -5 -8 -2 0 9 7 8 11 18 8 22 -3 3 0 2 6 -3 6 -5 11 -22 11 -38 0 -31
15 -56 29 -47 5 3 9 0 9 -5 0 -7 -32 -10 -87 -9 -108 2 -177 -17 -259 -70 -67
-43 -102 -82 -110 -121 -3 -14 -9 -33 -13 -41 -4 -8 -9 -50 -10 -92 -2 -62 0
-77 11 -73 10 4 17 -11 26 -55 14 -66 63 -133 111 -152 24 -8 160 -28 298 -43
l62 -7 41 42 c46 47 66 81 75 132 7 36 20 42 46 21 8 -6 22 -9 31 -8 10 2 16
-2 15 -8 -1 -7 4 -11 10 -10 7 2 12 -3 10 -10 -1 -6 4 -11 11 -10 6 2 12 -2
12 -7 0 -37 80 23 129 96 24 37 28 50 21 74 -5 17 -6 30 -2 30 4 0 0 5 -8 10
-11 7 -12 12 -3 21 15 15 43 4 43 -16 0 -10 -5 -13 -12 -9 -10 5 -10 4 -1 -6
8 -9 9 -17 3 -25 -7 -9 -5 -16 5 -25 8 -7 15 -9 15 -5 0 4 7 2 15 -5 8 -7 12
-16 10 -21 -3 -4 -8 -26 -11 -49 -3 -23 -7 -47 -9 -53 -11 -42 -18 -56 -29
-50 -6 4 -5 0 2 -9 9 -11 10 -18 2 -23 -5 -3 -10 -16 -10 -29 0 -29 -10 -39
-25 -26 -8 7 -12 5 -12 -5 0 -8 4 -12 9 -9 14 9 9 -11 -17 -62 -14 -27 -25
-42 -25 -34 0 9 6 22 13 30 10 12 9 12 -5 1 -10 -7 -18 -25 -18 -39 0 -14 -3
-23 -6 -19 -7 6 -34 -17 -34 -29 0 -3 -23 -31 -52 -60 -36 -38 -54 -50 -60
-41 -5 8 -8 7 -8 -5 0 -24 4 -23 66 18 137 91 226 266 251 493 3 31 7 63 9 71
1 8 3 22 4 30 0 8 9 -3 20 -26 10 -22 26 -47 35 -54 8 -7 15 -18 15 -24 0 -17
219 -233 265 -264 11 -7 33 -21 49 -32 16 -10 33 -17 37 -15 4 3 12 -2 18 -9
9 -10 9 -16 1 -21 -8 -5 -8 -10 0 -20 8 -10 8 -15 0 -20 -8 -5 -8 -10 0 -20 8
-10 8 -15 0 -20 -8 -5 -7 -11 2 -23 8 -10 8 -13 1 -9 -12 8 -12 -10 0 -30 4
-6 3 -15 -3 -18 -8 -5 -8 -11 0 -20 8 -10 8 -15 0 -20 -8 -5 -8 -10 0 -20 8
-10 8 -15 0 -20 -8 -5 -8 -10 0 -20 8 -10 8 -15 0 -20 -8 -5 -8 -10 0 -20 8
-9 8 -15 0 -20 -5 -3 -10 -21 -10 -39 0 -18 -3 -36 -7 -40 -10 -9 -13 -37 -4
-31 4 2 8 -2 8 -10 0 -8 -5 -13 -11 -12 -5 1 -10 -3 -11 -10 0 -6 -3 -15 -7
-19 -4 -4 -3 -13 4 -21 9 -11 8 -13 -3 -11 -9 2 -14 -5 -13 -20 1 -12 -1 -20
-4 -17 -3 2 -11 0 -19 -6 -10 -9 -11 -15 -1 -26 9 -11 8 -13 -3 -11 -8 2 -13
-3 -11 -10 1 -6 -3 -11 -10 -10 -6 2 -17 -7 -23 -20 -7 -13 -16 -24 -21 -25
-5 -1 -8 -5 -6 -10 1 -4 -4 -6 -10 -5 -7 2 -12 -2 -11 -9 2 -8 -17 -11 -34 -4
-1 1 14 27 33 59 42 69 51 99 34 115 -10 9 -11 9 -5 -2 6 -10 4 -12 -4 -7 -8
5 -9 12 -3 19 5 7 12 29 14 50 4 36 4 37 -14 19 -11 -10 -20 -28 -21 -40 0
-11 -6 -20 -12 -19 -5 1 -9 -4 -7 -11 1 -6 -4 -11 -10 -10 -7 2 -12 -3 -10
-10 1 -6 -4 -11 -10 -10 -7 2 -12 -3 -10 -10 1 -6 -4 -11 -10 -10 -7 2 -12 -3
-10 -10 1 -8 -2 -11 -6 -8 -5 3 -20 -3 -32 -14 -13 -11 -26 -20 -29 -20 -3 0
-20 -12 -36 -27 -16 -16 -32 -28 -35 -28 -3 0 -4 -3 -3 -6 1 -4 -8 -6 -20 -5
-12 0 -21 -4 -20 -10 1 -6 -12 -10 -30 -10 -23 1 -31 -3 -29 -13 2 -11 0 -12
-11 -3 -8 7 -17 9 -21 5 -10 -10 -216 -11 -222 -1 -3 5 -12 8 -20 8 -8 0 -12
-5 -9 -10 4 -6 10 -8 14 -6 4 3 8 -1 8 -9 0 -13 -3 -13 -17 0 -9 8 -19 14 -22
13 -2 -2 17 17 43 42 26 25 63 67 84 94 70 94 165 310 165 376 0 14 6 32 13
40 6 7 0 5 -15 -6 -15 -10 -28 -23 -28 -27 0 -5 -4 -6 -9 -2 -5 3 -15 -1 -23
-8 -7 -7 -22 -13 -33 -13 -12 0 -19 -6 -17 -14 2 -10 0 -11 -11 -2 -8 7 -17 8
-21 4 -4 -4 -12 -7 -17 -7 -5 0 -8 -4 -7 -10 2 -5 6 -9 9 -8 3 1 6 -4 6 -11 0
-7 -6 -13 -13 -13 -7 0 -11 4 -9 8 3 3 -2 12 -9 18 -9 8 -16 8 -20 2 -7 -10
-40 -7 -81 9 -14 5 -25 7 -25 3 0 -3 -10 2 -22 13 -12 10 -18 14 -15 7 7 -12
-9 -28 -28 -28 -5 0 -11 -8 -13 -19 -3 -11 0 -16 7 -11 6 3 8 12 5 18 -4 7 -4
9 1 5 4 -4 13 -4 19 1 8 7 25 -3 51 -28 22 -21 43 -38 48 -39 33 -3 67 -15 67
-23 0 -13 -14 -11 -28 3 -9 9 -12 9 -12 -3 0 -12 12 -16 54 -15 30 0 52 4 50
8 -3 5 2 8 10 8 8 0 18 -5 22 -12 4 -6 3 -8 -2 -5 -6 3 -10 -5 -10 -18 0 -18
3 -22 12 -14 7 6 11 19 9 29 -2 11 0 22 6 25 17 11 9 -41 -9 -61 -10 -10 -20
-23 -23 -29 -2 -5 -8 -9 -13 -7 -5 2 -4 -3 3 -12 9 -11 9 -16 0 -22 -8 -4 -9
-3 -5 4 11 18 0 14 -15 -5 -10 -11 -10 -14 -1 -9 6 4 12 2 12 -3 0 -6 -4 -11
-10 -11 -5 0 -10 -10 -10 -22 0 -19 -2 -20 -10 -8 -8 12 -10 9 -10 -13 0 -19
-4 -26 -12 -21 -7 4 -8 3 -4 -4 8 -14 -97 -123 -140 -144 -16 -8 -28 -19 -27
-26 2 -6 -6 -9 -17 -7 -13 2 -20 -2 -20 -11 0 -8 5 -12 10 -9 6 3 10 1 10 -4
0 -11 -5 -13 -37 -14 -10 -1 -21 -5 -24 -10 -3 -5 -12 -9 -20 -10 -8 -2 -20
-7 -28 -11 -10 -7 -12 -5 -6 5 5 8 -2 5 -14 -6 -28 -25 -24 -25 -54 3 -16 15
-27 20 -32 13 -4 -7 -1 -10 7 -9 7 2 12 -3 10 -10 -1 -8 2 -11 8 -7 5 3 10 1
10 -4 0 -15 -13 -14 -29 1 -10 11 -12 10 -9 -2 2 -9 -6 -14 -22 -15 -31 -2
-42 4 -34 16 4 6 11 6 20 -2 8 -6 14 -10 15 -8 7 34 6 36 -20 33 -14 -1 -27
-3 -28 -4 -2 -1 -7 -3 -12 -4 -5 0 -13 -5 -18 -9 -4 -5 -1 -7 7 -5 8 2 14 -3
12 -10 -1 -8 2 -11 8 -7 5 3 10 1 10 -4 0 -15 -13 -14 -29 2 -10 10 -12 9 -9
-3 2 -8 -5 -15 -17 -15 -11 -1 -28 -5 -38 -9 -10 -5 -24 -3 -34 5 -10 8 -14 9
-10 2 4 -6 3 -14 -2 -17 -5 -3 -9 37 -10 94 -2 127 -29 232 -83 327 -76 134
-206 265 -308 313 -39 18 -47 26 -39 37 15 17 10 17 -34 -6 -31 -16 -52 -18
-149 -14 -75 4 -121 10 -136 20 -27 17 -40 12 -17 -7 13 -10 6 -18 -46 -49
-158 -96 -305 -273 -348 -421 -7 -25 -17 -53 -22 -62 -5 -10 -9 -32 -10 -50 0
-21 -3 -27 -7 -17 -4 9 -15 15 -25 13 -15 -2 -16 0 -6 12 6 7 15 12 19 9 12
-8 5 24 -8 37 -7 7 -12 8 -12 4 0 -5 -7 -2 -17 5 -9 8 -26 14 -37 14 -13 1
-20 6 -18 15 2 8 0 12 -4 7 -4 -4 -16 1 -26 10 -11 10 -18 13 -16 8 2 -6 -1
-11 -7 -12 -5 -2 -10 1 -10 7 0 5 -6 15 -13 22 -6 6 -12 8 -12 3 0 -5 -11 2
-25 15 -26 25 -69 40 -46 17 7 -7 16 -12 22 -12 5 0 9 -3 9 -7 0 -5 0 -13 0
-19 0 -6 -11 3 -25 19 -14 17 -25 35 -25 41 0 6 -6 10 -13 9 -6 -2 -10 4 -9
12 2 8 0 12 -4 8 -11 -11 -34 12 -34 34 0 10 -4 17 -9 14 -12 -8 -57 87 -70
144 -17 80 -5 215 28 329 17 57 31 111 31 120 0 9 6 23 13 30 10 11 10 13 -1
7 -15 -9 -17 20 -2 29 6 4 10 14 8 23 -1 10 1 22 5 29 4 6 3 15 -3 18 -8 5 -7
12 2 23 7 9 8 13 3 10 -7 -4 -11 7 -11 28 l0 34 86 -85 c84 -83 112 -105 88
-65 -15 23 -1 55 23 55 8 0 14 5 14 12 0 6 4 15 8 20 5 4 8 4 6 -2 -1 -5 0
-17 4 -25 3 -8 8 -26 11 -40 9 -40 43 -89 76 -108 16 -11 27 -22 22 -27 -10
-11 184 9 253 26 95 24 158 105 172 219 3 27 10 47 14 44 5 -3 9 2 9 10 0 9 3
15 8 15 19 -3 23 2 13 15 -9 11 -9 16 0 22 7 4 9 3 6 -3 -7 -11 21 -37 45 -41
11 -2 18 9 23 35 6 32 9 35 15 18 4 -11 5 -24 2 -30 -3 -5 -1 -7 3 -2 11 9 86
-63 79 -75 -3 -5 0 -7 8 -6 7 2 12 -3 10 -10 -1 -8 2 -11 8 -7 5 3 11 -2 11
-12 1 -16 2 -17 6 -1 4 16 7 17 34 2 17 -8 34 -25 39 -37 6 -16 9 -18 9 -5 1
13 8 15 29 12 15 -3 32 -10 37 -16 7 -8 6 -9 -2 -4 -8 4 -13 1 -13 -8 0 -20
23 -16 32 4 6 13 7 13 7 -1 1 -9 8 -16 16 -16 10 0 12 4 5 12 -7 8 3 11 39 10
48 -1 49 -1 40 22 -5 13 -10 37 -11 54 -1 17 -6 33 -10 35 -19 12 -6 52 27 84
19 19 35 31 35 27 0 -17 -3 -22 -11 -19 -5 1 -8 -3 -7 -10 2 -7 -4 -12 -12
-13 -8 -1 -14 -7 -12 -14 1 -7 -1 -10 -6 -7 -5 3 -9 -1 -9 -8 0 -7 6 -13 13
-13 7 0 11 3 9 7 -2 4 16 26 40 50 29 29 44 51 43 66 -1 12 -6 21 -10 18 -4
-2 -5 -13 -3 -24 2 -12 0 -18 -5 -15 -5 3 -10 -2 -12 -11 -3 -15 -5 -15 -15
-3 -10 12 -7 21 15 45 15 16 32 39 39 49 6 11 16 19 22 17 6 -1 10 1 10 5 -3
21 3 32 29 45 79 41 111 68 81 68 -8 0 -7 5 1 16 11 12 11 15 -1 12 -8 -2 -13
3 -11 10 1 8 -2 11 -8 7 -6 -3 -7 -12 -3 -18 18 -29 7 -44 -29 -38 -5 0 -8 -4
-8 -9 0 -5 -5 -10 -12 -10 -6 0 -3 8 7 20 10 11 23 17 29 13 8 -5 8 -3 0 8
-14 18 16 76 37 71 11 -3 11 -1 2 8 -9 10 -7 20 8 46 10 19 19 43 19 54 0 10
5 22 10 25 6 3 10 17 10 29 0 13 7 29 15 36 8 7 12 17 8 24 -3 6 2 4 11 -5 9
-9 18 -25 19 -37 0 -11 5 -20 11 -19 5 1 14 -7 20 -18 6 -11 15 -27 21 -35 5
-8 10 -18 10 -22 0 -3 12 -20 28 -37 15 -17 27 -36 27 -42 0 -5 5 -7 10 -4 6
3 10 -1 10 -10 0 -9 5 -13 10 -10 8 5 8 11 0 20 -8 9 -8 15 0 20 6 3 7 12 3
18 -4 7 -7 21 -6 32 1 16 1 17 -3 2 -3 -9 -10 -15 -15 -11 -5 3 -8 2 -7 -3 2
-4 -1 -8 -7 -8 -5 0 -9 4 -7 8 1 5 -2 6 -8 2 -5 -3 -10 1 -10 10 0 9 4 14 8
11 5 -3 9 1 9 8 0 7 -10 13 -21 12 -16 -1 -21 5 -20 21 1 13 -3 20 -9 16 -6
-4 -7 -1 -2 7 6 9 4 11 -6 5 -12 -8 -12 -6 0 8 13 16 11 20 -6 15 -5 -2 -7 -7
-5 -11 1 -5 -2 -6 -7 -3 -5 3 -6 21 -1 40 4 19 6 37 4 39 -2 2 2 4 9 4 7 0 18
-11 24 -24z m67 -33 c6 -8 1 -7 -11 4 -13 10 -20 23 -16 29 4 7 8 6 11 -3 3
-8 10 -22 16 -30z m-1190 18 c-11 -17 -4 -92 8 -99 5 -3 9 -10 8 -15 -3 -15
-22 -34 -29 -30 -4 3 -8 -7 -9 -22 l-2 -27 13 25 c13 25 52 35 52 13 0 -6 3
-15 8 -19 4 -4 7 -18 7 -30 0 -13 5 -26 10 -29 6 -3 10 -13 10 -21 0 -8 -4
-12 -10 -9 -14 8 -8 -44 6 -55 7 -6 11 -5 11 5 0 8 -3 12 -7 10 -4 -2 -7 2 -7
10 0 19 17 8 27 -19 12 -32 3 -36 -43 -19 -23 8 -75 16 -114 17 -70 1 -81 4
-66 20 13 12 11 33 -3 33 -7 0 -12 -3 -11 -6 1 -3 -3 -6 -8 -6 -5 0 -9 3 -8 6
1 3 -4 6 -12 6 -8 0 -13 -5 -12 -11 1 -6 -3 -10 -9 -9 -6 1 -11 -4 -11 -12 0
-8 4 -12 9 -9 4 3 8 0 8 -5 0 -10 -7 -13 -26 -10 -4 0 -10 -5 -15 -12 -4 -8
-11 -11 -14 -7 -3 3 1 13 10 21 8 9 15 20 15 25 0 14 46 53 54 45 4 -5 7 -3 6
2 -6 30 1 44 21 40 16 -3 18 -1 10 9 -8 9 -5 18 10 34 11 12 23 22 26 22 3 0
-2 -9 -11 -19 -12 -13 -14 -21 -6 -26 5 -3 8 -10 6 -14 -3 -4 1 -8 9 -8 13 0
12 4 -2 19 -14 16 -12 22 9 19 7 -1 5 20 -4 35 -10 15 30 56 45 48 9 -5 9 -4
0 6 -12 13 -5 34 26 73 16 20 26 23 15 5z m1885 -71 c-2 -31 11 -99 23 -120
11 -22 13 -20 -32 -37 -19 -7 -42 -20 -52 -27 -15 -13 -17 -9 -28 44 -6 32
-15 71 -21 87 -5 16 -9 39 -9 52 0 21 5 23 53 26 64 4 67 2 66 -25z m-689
-103 c0 -8 -5 -12 -10 -9 -6 4 -8 11 -5 16 9 14 15 11 15 -7z m1234 -38 c14 2
16 0 8 -8 -9 -9 -8 -16 1 -27 7 -10 2 -8 -11 3 -12 11 -22 16 -22 11 0 -4 -6
-2 -13 4 -8 6 -18 7 -23 3 -4 -4 -2 1 5 11 9 11 18 14 25 8 6 -4 19 -7 30 -5z
m-462 -24 c7 -7 8 -12 3 -12 -5 0 3 -13 18 -28 l27 -28 -28 2 c-28 2 -86 -42
-76 -57 2 -4 0 -11 -6 -14 -7 -4 -9 -28 -5 -63 4 -32 8 -73 10 -92 2 -19 4
-36 4 -37 1 -2 0 -5 -1 -7 -2 -2 5 -13 15 -23 9 -11 15 -22 12 -25 -3 -3 4
-13 15 -23 11 -10 20 -24 20 -30 0 -7 7 -18 15 -25 8 -7 13 -16 10 -20 -2 -4
9 -20 25 -35 17 -16 30 -35 30 -42 0 -7 5 -12 11 -11 6 2 19 -10 29 -27 10
-16 23 -29 30 -27 8 2 11 -4 7 -18 -4 -16 -2 -19 7 -11 9 8 19 4 36 -14 13
-14 20 -25 16 -25 -4 0 -4 -5 -1 -11 5 -7 16 -2 31 12 13 12 22 25 19 27 -3 3
2 14 12 24 9 10 13 18 8 18 -4 0 -1 7 6 16 7 9 14 23 15 32 2 8 9 19 16 23 7
5 9 9 4 9 -5 0 -2 8 7 18 10 10 15 21 12 24 -3 3 1 11 10 18 8 7 15 18 15 25
0 7 7 18 15 25 9 7 13 15 10 18 -3 3 0 11 6 19 6 7 8 13 4 13 -4 0 -1 7 6 16
7 9 14 25 16 37 2 11 8 26 14 34 6 7 8 13 4 13 -4 0 -3 6 2 13 6 6 9 20 8 29
-2 10 0 20 4 22 4 3 6 -26 6 -62 0 -46 -4 -67 -13 -67 -6 0 -12 -4 -12 -10 0
-5 5 -10 12 -10 21 0 16 -33 -8 -56 -13 -12 -24 -28 -24 -35 0 -6 -7 -17 -15
-24 -9 -7 -13 -15 -10 -18 3 -3 -2 -14 -12 -24 -9 -10 -12 -18 -8 -18 4 0 1
-8 -8 -17 -8 -10 -16 -21 -17 -25 -2 -18 -14 -44 -26 -58 -7 -8 -13 -19 -14
-25 -2 -5 -7 -21 -13 -35 -5 -14 -11 -31 -13 -38 -4 -19 -14 -28 -14 -13 0 7
-4 10 -8 7 -5 -3 -24 10 -42 29 -18 19 -38 31 -44 28 -6 -4 -5 1 2 10 12 14
11 16 -6 12 -13 -2 -36 13 -70 48 -28 29 -52 57 -53 62 0 6 -5 9 -10 7 -5 -1
-9 4 -9 11 0 7 -13 26 -30 42 -16 16 -30 34 -30 41 0 6 -7 17 -15 24 -8 7 -13
16 -10 20 3 4 -2 13 -9 19 -8 7 -29 40 -46 74 -26 49 -33 77 -37 136 -2 46 1
78 8 87 6 8 8 14 3 14 -4 0 2 10 14 23 12 13 21 25 20 28 -2 2 -1 3 1 2 2 -1
14 9 28 22 27 24 46 26 65 7z m-673 -49 c-15 -17 -23 -9 -25 23 -1 23 0 23 18
8 14 -13 15 -20 7 -31z m-1044 -16 c1 -13 -3 -24 -9 -24 -7 0 -12 15 -12 34 0
37 19 28 21 -10z m1103 8 c12 -14 22 -33 21 -43 0 -14 -2 -14 -9 3 -6 13 -9
15 -9 5 -1 -10 -4 -11 -9 -4 -4 6 -15 10 -25 8 -9 -1 -15 2 -12 6 3 5 1 12 -5
15 -8 5 -7 11 1 21 16 19 22 18 47 -11z m-1489 7 c9 7 6 1 -7 -13 -19 -20 -24
-22 -32 -9 -11 18 -1 35 13 21 7 -7 15 -7 26 1z m1551 -78 c0 -3 -7 -1 -15 6
-8 7 -15 17 -15 22 0 5 7 3 15 -6 8 -8 15 -18 15 -22z m720 -68 c0 -3 -5 -6
-11 -6 -5 0 -7 5 -4 10 4 6 1 9 -7 8 -7 -2 -12 3 -10 11 3 12 0 12 -12 2 -9
-7 -13 -18 -9 -25 4 -6 -1 -5 -11 3 -15 12 -17 12 -14 0 2 -8 -3 -13 -11 -11
-12 3 -12 1 0 -14 12 -16 12 -17 -1 -9 -26 16 -43 16 -29 -1 6 -7 16 -11 22
-7 5 3 7 1 3 -5 -3 -6 1 -9 11 -7 10 1 17 7 16 12 -1 5 4 10 12 10 8 0 11 -5
8 -10 -3 -6 -1 -7 6 -3 6 4 9 11 6 16 -3 5 -1 11 4 14 5 4 12 2 15 -3 8 -12
-23 -43 -35 -36 -5 4 -9 1 -9 -4 0 -13 -33 -15 -44 -3 -4 4 -13 7 -19 7 -7 0
-12 8 -12 18 0 9 3 16 7 15 3 -2 17 7 31 20 23 21 30 62 14 78 -4 4 -7 11 -7
15 0 5 20 -14 45 -40 25 -26 45 -51 45 -55z m-1851 81 c8 -10 7 -14 -2 -14 -8
0 -14 6 -14 14 0 7 1 13 2 13 2 0 8 -6 14 -13z m2061 -42 c-7 -8 -9 -15 -5
-15 4 0 2 -7 -5 -15 -7 -8 -16 -13 -20 -10 -5 3 -11 1 -14 -4 -6 -9 -50 -6
-68 6 -14 8 21 41 40 38 9 -2 17 -4 17 -5 0 -9 37 -5 46 6 6 8 14 14 16 14 3
0 0 -7 -7 -15z m-2456 -3 c3 -5 -1 -9 -9 -9 -8 0 -12 4 -9 9 3 4 7 8 9 8 2 0
6 -4 9 -8z m80 0 c3 -5 -1 -9 -9 -9 -8 0 -12 4 -9 9 3 4 7 8 9 8 2 0 6 -4 9
-8z m363 -36 c-1 -6 5 -9 13 -8 8 2 12 0 7 -4 -4 -4 0 -15 8 -24 13 -14 13
-17 1 -17 -8 0 -14 3 -13 6 1 3 -2 6 -8 6 -5 0 -9 -3 -8 -6 1 -3 -5 -6 -13 -6
-7 0 -12 3 -9 5 3 3 -3 14 -12 24 -14 15 -14 19 -3 16 8 -2 14 2 13 8 -1 6 4
11 12 11 8 0 13 -5 12 -11z m763 2 c0 -4 -4 -8 -9 -8 -6 0 -12 4 -15 8 -3 5 1
9 9 9 8 0 15 -4 15 -9z m1001 -11 c-6 -6 -18 -12 -27 -13 -9 -1 -13 1 -9 4 4
4 12 7 18 7 7 1 11 7 9 14 -1 7 2 9 9 6 8 -5 8 -10 0 -18z m-2261 -3 c0 -8
-19 -13 -24 -6 -3 5 1 9 9 9 8 0 15 -2 15 -3z m377 -31 c0 -9 -4 -10 -14 -2
-7 6 -13 12 -13 14 0 1 6 2 13 2 8 0 14 -6 14 -14z m480 2 c0 -8 -4 -12 -9 -9
-5 3 -6 10 -3 15 9 13 12 11 12 -6z m-1037 -29 c0 -2 -8 -10 -17 -17 -16 -13
-17 -12 -4 4 13 16 21 21 21 13z m597 -11 c0 -6 -6 -12 -12 -12 -6 0 -12 6
-12 12 0 6 6 12 12 12 6 0 12 -6 12 -12z m80 0 c0 -8 -4 -12 -9 -9 -5 3 -6 10
-3 15 9 13 12 11 12 -6z m72 2 c8 -10 7 -14 -2 -14 -8 0 -14 6 -14 14 0 7 1
13 2 13 2 0 8 -6 14 -13z m288 -2 c0 -8 -4 -12 -9 -9 -5 3 -6 10 -3 15 9 13
12 11 12 -6z m-637 -3 c0 -13 -12 -22 -22 -16 -10 6 -1 24 13 24 5 0 9 -4 9
-8z m317 -37 c0 -8 -4 -12 -9 -9 -5 3 -6 10 -3 15 9 13 12 11 12 -6z m-634
-33 c24 -21 21 -39 -9 -59 -21 -13 -30 -14 -45 -4 -11 6 -23 10 -27 7 -4 -2
-8 11 -8 29 0 18 5 33 11 32 5 -1 9 3 8 9 -3 15 48 5 70 -14z m1211 13 c20
-21 20 -39 0 -59 -20 -20 -58 -21 -74 -1 -7 8 -16 13 -19 10 -4 -2 -8 2 -8 10
0 8 4 12 9 9 7 -4 12 15 10 37 -1 13 67 8 82 -6z m384 -17 c-6 -18 -28 -21
-28 -4 0 9 7 16 16 16 9 0 14 -5 12 -12z m-1898 -26 c0 -13 -12 -22 -22 -16
-10 6 -1 24 13 24 5 0 9 -4 9 -8z m508 -23 c4 -22 -25 -50 -43 -43 -31 12 -8
68 25 62 8 -2 16 -11 18 -19z m509 4 c0 -9 -4 -10 -14 -2 -7 6 -13 12 -13 14
0 1 6 2 13 2 8 0 14 -6 14 -14z m731 -50 c3 -22 -29 -49 -42 -36 -8 9 -8 48 1
57 13 13 38 1 41 -21z m-614 9 c3 -5 -1 -9 -9 -9 -8 0 -12 4 -9 9 3 4 7 8 9 8
2 0 6 -4 9 -8z m-1197 -17 c0 -8 -4 -12 -9 -9 -5 3 -6 10 -3 15 9 13 12 11 12
-6z m180 -7 c-3 -8 -6 -5 -6 6 -1 11 2 17 5 13 3 -3 4 -12 1 -19z m547 16 c27
-10 20 -74 -13 -127 -34 -52 -49 -58 -194 -78 l-88 -12 -36 35 c-29 29 -37 46
-40 85 -5 48 -4 50 28 65 51 24 84 25 108 4 30 -27 71 -24 94 8 16 22 26 26
72 26 29 0 60 -3 69 -6z m996 -27 c0 -22 37 -49 67 -49 17 0 34 9 47 25 18 23
25 25 56 18 19 -5 52 -16 73 -27 34 -16 37 -21 37 -58 0 -44 -28 -114 -51
-131 -8 -6 -25 -12 -39 -13 -43 -4 -309 35 -325 48 -16 14 -55 111 -55 140 0
31 56 53 148 59 30 1 42 -2 42 -12z m-1723 -42 c0 -6 -6 -12 -12 -12 -6 0 -12
6 -12 12 0 6 6 12 12 12 6 0 12 -6 12 -12z m3000 -79 c0 -8 -5 -14 -11 -13 -6
1 -10 -19 -10 -50 0 -28 -4 -49 -8 -47 -5 3 -6 9 -3 14 3 5 1 11 -4 14 -14 9
-6 54 14 76 22 24 22 24 22 6z m-3045 -240 c-4 -6 -7 -14 -7 -18 0 -19 -11
-14 -11 6 0 12 6 23 13 23 6 0 9 -5 5 -11z m-314 -93 c2 -22 0 -23 -13 -9 -18
18 -19 33 -2 33 7 0 14 -11 15 -24z m39 -30 c0 -9 -4 -10 -14 -2 -7 6 -13 12
-13 14 0 1 6 2 13 2 8 0 14 -6 14 -14z m83 -29 c0 -8 -19 -13 -24 -6 -3 5 1 9
9 9 8 0 15 -2 15 -3z m-86 -12 c3 -5 -1 -9 -9 -9 -8 0 -12 4 -9 9 3 4 7 8 9 8
2 0 6 -4 9 -8z m226 -8 c0 -8 -19 -13 -24 -6 -3 5 1 9 9 9 8 0 15 -2 15 -3z
m918 -18 c9 -5 10 -11 3 -20 -6 -7 -9 -16 -6 -19 3 -4 2 -5 -1 -2 -4 2 -13 -2
-20 -10 -20 -19 -53 -8 -49 17 7 36 43 53 73 34z m-1101 -11 c0 -6 -6 -12 -12
-12 -6 0 -12 6 -12 12 0 6 6 12 12 12 6 0 12 -6 12 -12z m2640 0 c0 -6 -6 -12
-12 -12 -6 0 -12 6 -12 12 0 6 6 12 12 12 6 0 12 -6 12 -12z m-2603 -3 c3 -5
-1 -9 -9 -9 -8 0 -12 4 -9 9 3 4 7 8 9 8 2 0 6 -4 9 -8z m82 -21 c8 7 14 7 19
-1 4 -6 1 -9 -7 -8 -7 2 -12 -2 -11 -8 1 -6 -4 -11 -12 -11 -8 0 -13 5 -12 11
1 6 -4 10 -11 8 -8 -1 -11 2 -7 9 5 7 10 8 18 0 7 -7 14 -7 23 0z m58 1 c3 -5
-1 -9 -9 -9 -8 0 -12 4 -9 9 3 4 7 8 9 8 2 0 6 -4 9 -8z m-137 -17 c0 -6 -6
-12 -12 -12 -6 0 -12 6 -12 12 0 6 6 12 12 12 6 0 12 -6 12 -12z m188 6 c3 -5
2 -12 -3 -15 -5 -3 -9 1 -9 9 0 17 3 19 12 6z m1292 -8 c0 -9 -4 -10 -14 -2
-7 6 -13 12 -13 14 0 1 6 2 13 2 8 0 14 -6 14 -14z m43 12 c0 -2 -6 -8 -13
-14 -10 -8 -14 -7 -14 2 0 8 6 14 14 14 7 0 13 -1 13 -2z m1080 0 c0 -2 -6 -8
-13 -14 -10 -8 -14 -7 -14 2 0 8 6 14 14 14 7 0 13 -1 13 -2z m-2604 -49 c15
-8 31 -13 36 -10 5 3 7 0 6 -8 -2 -8 5 -13 17 -12 14 1 21 -6 22 -18 2 -23 22
-50 32 -44 4 3 8 -4 8 -15 2 -23 22 -51 32 -45 4 3 8 -4 8 -15 2 -26 22 -51
34 -43 5 3 8 0 7 -8 -2 -7 3 -12 9 -11 7 2 12 -3 10 -10 -1 -6 5 -11 13 -9 8
2 12 0 7 -4 -10 -10 23 -45 36 -37 5 3 7 2 4 -4 -9 -14 45 -61 66 -58 9 2 15
-1 11 -6 -8 -14 -35 -11 -97 10 -30 11 -57 17 -60 15 -10 -10 5 -110 22 -145
18 -37 18 -37 -3 -43 -72 -19 -167 9 -236 71 -93 84 -135 209 -131 393 1 45 1
46 35 46 19 0 33 -4 30 -7 -2 -4 0 -10 5 -13 12 -8 43 23 36 35 -9 13 9 11 41
-5z m3149 -75 c3 -5 2 -12 -3 -15 -5 -3 -9 1 -9 9 0 17 3 19 12 6z m-2908 -46
c0 -6 -6 -12 -12 -12 -6 0 -12 6 -12 12 0 6 6 12 12 12 6 0 12 -6 12 -12z
m-40 -40 c0 -6 -6 -12 -12 -12 -6 0 -12 6 -12 12 0 6 6 12 12 12 6 0 12 -6 12
-12z m72 2 c8 -10 7 -14 -2 -14 -8 0 -14 6 -14 14 0 7 1 13 2 13 2 0 8 -6 14
-13z m521 -2 c8 -5 36 -10 63 -11 26 -1 49 -3 52 -4 3 -1 10 -4 15 -5 6 -1 12
-4 15 -5 3 -1 10 -3 15 -4 15 -2 12 -21 -2 -22 -7 0 -19 4 -27 10 -17 13 -60
16 -67 4 -9 -13 -36 -10 -28 5 4 6 4 9 -1 5 -4 -4 -14 -3 -21 3 -8 7 -14 7
-19 -1 -3 -6 -11 -8 -16 -4 -6 3 -5 12 3 22 11 15 11 15 -3 5 -9 -7 -20 -9
-24 -5 -5 4 -5 2 -1 -5 3 -6 2 -15 -4 -18 -8 -5 -7 -11 1 -21 11 -13 6 -18
-14 -15 -5 1 -5 -4 -1 -10 4 -7 3 -9 -4 -5 -11 7 -11 -12 1 -31 4 -6 3 -14 -2
-17 -11 -7 -33 19 -23 28 4 4 8 12 8 17 1 5 3 11 4 14 1 3 3 8 5 13 18 63 39
80 75 57z m2335 -14 c3 -5 2 -12 -3 -15 -5 -3 -9 1 -9 9 0 17 3 19 12 6z
m-2361 -32 c-3 -5 -10 -7 -15 -3 -5 3 -7 10 -3 15 3 5 10 7 15 3 5 -3 7 -10 3
-15z m50 -17 c-20 -13 -38 -88 -23 -97 5 -4 6 -12 2 -18 -4 -7 -8 -20 -9 -29
-2 -28 -3 -30 -14 -23 -8 5 -8 11 0 20 8 9 8 15 0 20 -6 4 -9 3 -8 -2 2 -4 -1
-9 -7 -9 -5 -1 -9 1 -8 5 1 4 -4 8 -11 8 -7 0 -13 -6 -13 -13 0 -7 5 -12 11
-11 6 1 10 -4 9 -10 -2 -7 0 -12 5 -10 4 1 7 -2 7 -8 0 -5 -3 -9 -7 -8 -5 2
-7 0 -5 -5 1 -4 -2 -7 -8 -7 -5 0 -9 3 -8 7 2 5 -3 7 -10 5 -6 -1 -11 3 -10 9
1 6 -4 11 -12 11 -7 0 -12 -8 -10 -19 3 -12 0 -16 -8 -11 -8 4 -8 2 1 -9 8
-10 9 -19 3 -22 -13 -8 -19 5 -14 29 2 11 4 35 4 54 0 18 3 39 7 45 4 6 7 14
8 19 1 4 2 10 3 13 0 3 6 2 12 -1 7 -5 5 -13 -5 -24 -14 -15 -14 -18 -2 -18 8
0 14 3 13 6 -1 3 3 6 8 6 6 0 9 -3 8 -6 -1 -3 4 -6 12 -6 8 0 13 4 12 8 -1 4
3 6 8 5 6 0 9 -5 7 -9 -1 -5 2 -6 8 -2 8 5 8 11 1 19 -7 9 -7 16 0 23 8 8 7
13 0 18 -6 3 -10 3 -9 -2 2 -4 -1 -8 -7 -8 -5 0 -9 3 -7 7 1 5 -2 7 -7 5 -5
-1 -9 3 -9 8 0 6 4 9 10 7 5 -1 7 2 4 6 -7 12 28 44 38 35 4 -5 7 -3 6 2 -5
24 1 28 18 12 12 -12 14 -20 6 -25z m111 -7 c31 -30 32 -73 5 -108 -16 -20
-31 -26 -70 -29 l-50 -3 0 56 c0 57 10 78 45 97 30 17 43 14 70 -13z m639 -16
c-3 -5 -1 -8 4 -7 6 2 10 -1 10 -7 0 -5 -4 -9 -9 -7 -5 1 -8 -4 -6 -10 1 -7
-3 -12 -9 -11 -6 1 -11 -4 -11 -12 0 -8 5 -13 11 -12 6 1 10 -5 8 -13 -2 -8 0
-12 4 -7 10 10 45 -23 37 -36 -3 -5 -1 -7 4 -4 13 8 46 -27 36 -37 -5 -4 -3
-6 2 -4 6 2 10 -1 10 -7 0 -5 -3 -9 -7 -8 -5 2 -7 0 -5 -5 1 -4 -2 -7 -8 -7
-5 0 -9 3 -8 6 1 3 -4 6 -11 6 -7 0 -13 -6 -13 -13 0 -7 3 -12 6 -11 3 1 6 -2
6 -8 0 -5 -3 -9 -7 -8 -5 2 -7 0 -5 -5 1 -4 -2 -7 -8 -7 -5 0 -9 3 -7 7 1 5
-1 7 -6 5 -4 -1 -7 2 -7 8 0 5 3 9 6 8 3 -1 6 4 6 12 0 8 -3 13 -6 12 -3 -1
-6 3 -6 8 0 6 3 9 6 8 3 -1 6 4 6 12 0 8 -3 13 -6 12 -3 -1 -6 3 -6 8 0 6 3 9
6 8 3 -1 6 4 6 11 0 7 -6 13 -13 13 -7 0 -12 -4 -11 -8 1 -4 -2 -6 -8 -5 -5 0
-9 5 -7 10 2 5 -4 4 -12 -4 -17 -14 -22 -25 -7 -15 5 3 12 1 15 -4 10 -15 -10
-22 -21 -8 -11 14 9 61 22 49 4 -4 2 3 -6 15 -10 17 -10 24 0 36 8 11 9 17 1
22 -8 5 -8 11 1 21 12 15 33 9 23 -7z m1556 17 c0 -2 -8 -10 -17 -17 -16 -13
-17 -12 -4 4 13 16 21 21 21 13z m-1645 -12 c29 -11 44 -61 32 -108 -13 -53
-22 -62 -42 -42 -9 9 -27 16 -40 16 -26 0 -55 33 -55 63 0 10 7 31 15 47 16
31 50 39 90 24z m1515 3 c0 -2 -8 -11 -18 -20 -15 -14 -19 -15 -19 -2 0 8 4
12 8 9 4 -2 10 0 14 6 6 10 15 14 15 7z m-2547 -22 c4 0 7 -4 8 -10 2 -21 21
-35 34 -25 8 7 17 4 29 -9 10 -10 25 -18 34 -16 21 3 44 -14 36 -26 -3 -5 -10
-7 -15 -3 -5 3 -7 10 -4 15 10 15 -2 10 -16 -8 -8 -10 -9 -14 -2 -10 6 4 15 2
18 -3 5 -8 13 -6 25 5 10 9 21 12 24 7 3 -5 -1 -15 -9 -22 -8 -7 -15 -9 -15
-4 0 5 -5 2 -10 -6 -7 -11 -10 -11 -10 -2 0 7 -4 11 -9 8 -5 -3 -14 1 -21 9
-7 8 -16 12 -21 9 -5 -3 -8 0 -7 8 2 7 -3 12 -10 10 -8 -1 -11 2 -8 7 4 5 2
12 -4 16 -5 3 -10 0 -10 -7 0 -10 -2 -10 -9 0 -4 8 -12 13 -17 11 -5 -1 -14 8
-20 21 -8 15 -13 18 -17 8 -3 -7 -4 -3 -4 9 1 12 6 19 12 15 5 -4 13 -7 18 -7z
m-126 -20 c0 -6 -6 -12 -12 -12 -6 0 -12 6 -12 12 0 6 6 12 12 12 6 0 12 -6
12 -12z m427 -26 c-3 -5 -10 -7 -15 -3 -5 3 -7 10 -3 15 3 5 10 7 15 3 5 -3 7
-10 3 -15z m299 -62 c-3 -6 -2 -7 4 -4 5 3 32 -16 58 -43 27 -28 46 -50 42
-50 -14 0 -22 5 -19 13 1 4 -4 6 -10 5 -7 -2 -12 3 -10 10 1 6 -4 11 -10 10
-7 -2 -12 3 -10 10 1 6 -4 11 -10 10 -7 -2 -12 2 -11 8 1 6 -4 11 -12 11 -8 0
-13 -4 -12 -8 1 -4 -2 -6 -8 -6 -5 1 -9 5 -7 10 1 4 -1 6 -5 5 -5 -2 -8 2 -8
7 0 6 3 9 6 8 3 -1 6 4 6 12 0 8 -5 13 -11 12 -6 -1 -10 4 -8 11 1 6 -1 11 -5
11 -17 -3 -24 2 -17 12 4 7 17 1 35 -17 15 -15 26 -32 22 -37z m-703 37 c0 -8
-19 -13 -24 -6 -3 5 1 9 9 9 8 0 15 -2 15 -3z m109 -7 c8 -10 7 -14 -2 -14 -8
0 -14 6 -14 14 0 7 1 13 2 13 2 0 8 -6 14 -13z m-49 -13 c0 -8 -19 -13 -24 -6
-3 5 1 9 9 9 8 0 15 -2 15 -3z m604 -15 c-3 -5 -10 -7 -15 -3 -5 3 -7 10 -3
15 3 5 10 7 15 3 5 -3 7 -10 3 -15z m1916 17 c0 -2 -8 -10 -17 -17 -16 -13
-17 -12 -4 4 13 16 21 21 21 13z m117 -11 c0 -6 -6 -12 -12 -12 -6 0 -12 6
-12 12 0 6 6 12 12 12 6 0 12 -6 12 -12z m-3152 -14 c3 -5 2 -12 -3 -15 -5 -3
-9 1 -9 9 0 17 3 19 12 6z m1014 -10 c2 -1 -2 -8 -9 -16 -12 -14 -35 -11 -26
4 3 4 -1 8 -8 8 -7 0 -13 -6 -13 -13 0 -7 3 -12 6 -11 3 1 6 -2 6 -8 0 -5 -3
-9 -7 -7 -5 1 -7 -2 -5 -7 1 -5 -2 -9 -8 -9 -5 0 -9 4 -7 9 1 5 -4 8 -10 7 -7
-2 -12 2 -11 8 1 6 -4 11 -12 11 -8 0 -13 -5 -12 -11 1 -6 -3 -10 -9 -9 -6 1
-11 -4 -11 -12 0 -8 4 -12 8 -9 4 2 10 0 14 -5 3 -5 14 -8 25 -6 13 3 18 0 14
-7 -4 -6 -3 -8 4 -4 6 3 13 2 17 -3 3 -5 14 -8 25 -6 14 3 18 0 14 -8 -4 -7
-4 -9 1 -5 4 4 14 3 21 -3 8 -7 14 -7 19 1 3 6 11 8 16 4 6 -4 6 -11 -1 -19
-9 -11 -17 -10 -43 3 -18 9 -38 17 -45 18 -8 2 -21 6 -30 10 -16 6 -32 11 -72
19 -8 1 -21 -2 -27 -8 -7 -5 -13 -6 -13 -2 0 4 -9 -3 -20 -16 -19 -23 -19 -23
-20 -4 0 31 20 47 39 32 14 -11 14 -10 1 7 -24 31 -22 51 4 27 l22 -21 28 29
c17 18 34 27 46 24 10 -3 20 -1 24 5 4 7 42 9 65 3z m125 -42 c-3 -5 -10 -7
-15 -3 -5 3 -7 9 -5 13 3 4 -1 8 -9 8 -8 0 -13 -5 -12 -11 1 -6 -4 -10 -10 -8
-7 1 -12 -4 -10 -10 1 -7 -4 -12 -10 -11 -7 2 -12 0 -12 -5 3 -16 -2 -23 -12
-16 -7 4 4 21 27 45 35 36 39 38 56 23 9 -9 15 -21 12 -25z m443 8 c12 -11 20
-23 18 -27 -2 -4 2 -7 9 -7 7 0 13 6 13 13 0 7 -4 11 -8 9 -4 -3 -2 6 4 19 7
13 15 22 20 19 4 -3 3 -11 -3 -18 -8 -9 -8 -15 0 -20 6 -3 8 -11 4 -16 -3 -5
-2 -8 3 -7 4 2 8 -1 8 -7 0 -5 -3 -9 -7 -7 -5 1 -7 -2 -5 -7 1 -5 -2 -9 -8 -9
-5 0 -9 3 -8 7 1 4 -4 8 -12 8 -8 0 -13 -3 -12 -6 1 -3 -2 -6 -8 -6 -5 0 -9 3
-7 8 1 4 -1 6 -5 5 -5 -2 -9 2 -9 7 -1 6 1 9 5 8 4 -1 8 4 8 12 0 8 -5 13 -11
12 -6 -1 -10 3 -9 9 1 5 -8 10 -21 10 -16 0 -22 -6 -22 -22 0 -13 2 -22 6 -21
3 1 5 -2 5 -8 0 -5 -3 -9 -7 -8 -5 2 -7 -1 -5 -6 1 -5 -2 -8 -8 -8 -5 1 -9 5
-8 8 1 3 -4 6 -12 6 -8 0 -13 -3 -12 -6 1 -3 -2 -6 -8 -6 -5 0 -9 3 -8 6 1 3
-4 6 -12 6 -8 0 -13 -3 -12 -6 1 -3 -2 -6 -8 -6 -5 0 -9 3 -8 6 1 3 -4 6 -12
6 -8 0 -13 -4 -12 -8 1 -4 -2 -7 -8 -7 -5 0 -9 4 -7 9 1 5 -1 8 -5 7 -5 -2 -8
2 -8 7 0 6 3 9 8 7 4 -1 6 2 5 7 -2 5 2 9 7 9 6 0 9 -3 8 -7 -1 -4 4 -8 12 -8
8 0 13 4 12 8 -1 4 3 7 8 7 6 0 9 -3 8 -7 -1 -4 4 -8 12 -8 8 0 13 3 12 6 -1
3 3 6 8 6 6 0 9 -3 8 -6 -1 -3 4 -6 11 -6 7 0 13 6 13 13 0 7 -3 12 -6 11 -3
-1 -7 3 -7 8 -1 6 2 9 7 8 5 -2 8 0 8 5 -3 16 2 19 29 14 15 -2 37 -14 49 -25z
m97 12 c-3 -5 -9 -7 -13 -5 -4 3 -8 -1 -8 -9 0 -8 3 -14 6 -13 16 1 22 -3 16
-13 -5 -7 -14 -4 -26 7 -18 16 -18 19 -3 35 16 18 40 16 28 -2z m160 -2 c-4
-7 -3 -9 1 -4 11 9 46 -23 39 -35 -3 -4 -1 -7 4 -6 6 2 9 -1 9 -7 -1 -5 -5 -9
-9 -7 -5 1 -7 -2 -5 -7 1 -5 -2 -8 -8 -8 -5 1 -9 5 -8 8 1 3 -4 6 -12 6 -8 0
-13 -4 -12 -8 1 -4 -2 -6 -8 -6 -5 1 -9 5 -8 8 1 3 -4 6 -12 6 -8 0 -13 -3
-12 -6 1 -3 -2 -6 -8 -6 -5 0 -9 3 -8 6 1 3 -4 6 -11 6 -7 0 -13 -6 -13 -13 0
-7 4 -12 8 -11 4 1 7 -2 7 -8 0 -5 -4 -9 -9 -7 -5 1 -8 -1 -6 -5 1 -5 -2 -8
-8 -8 -5 0 -9 3 -7 8 1 4 -2 6 -7 5 -5 -2 -9 2 -9 7 0 6 4 9 10 7 5 -1 7 2 4
6 -7 12 28 44 39 35 4 -5 5 -3 2 3 -8 14 26 47 37 37 4 -5 7 -3 6 2 -4 19 0
26 10 20 6 -4 7 -12 4 -18z m-1370 5 c3 -5 -1 -9 -9 -9 -8 0 -12 4 -9 9 3 4 7
8 9 8 2 0 6 -4 9 -8z m200 0 c3 -5 -1 -9 -9 -9 -8 0 -12 4 -9 9 3 4 7 8 9 8 2
0 6 -4 9 -8z m570 -84 c-3 -4 -10 -6 -15 -2 -5 3 -7 10 -3 15 3 5 0 8 -8 7 -7
-2 -12 3 -10 10 1 6 -4 11 -10 10 -7 -2 -12 2 -11 8 1 6 -4 11 -12 11 -8 0
-14 -3 -13 -6 1 -16 -3 -22 -13 -16 -7 5 -4 14 7 26 17 19 18 19 55 -17 21
-21 36 -41 33 -46z m100 61 c-3 -5 -10 -7 -15 -3 -5 3 -8 0 -7 -8 2 -7 -3 -12
-9 -10 -7 1 -12 -4 -10 -10 1 -7 -4 -12 -10 -11 -7 2 -12 -3 -10 -10 1 -6 -4
-11 -10 -10 -7 2 -12 0 -12 -5 3 -17 -2 -23 -12 -16 -7 4 7 25 37 55 26 26 51
46 56 43 5 -3 6 -10 2 -15z m30 -10 c-9 -10 -21 -16 -26 -13 -4 3 -7 0 -6 -8
2 -7 -3 -12 -9 -11 -7 2 -12 -3 -10 -10 1 -6 -4 -11 -10 -10 -7 2 -12 -3 -10
-10 1 -6 -4 -11 -10 -9 -7 1 -12 -3 -10 -10 1 -7 -10 -12 -28 -12 -18 0 -29 5
-27 12 1 7 -4 11 -10 10 -7 -2 -12 3 -10 10 1 6 -4 11 -10 10 -7 -2 -12 3 -10
10 1 6 -1 11 -5 11 -18 -3 -24 2 -17 12 4 7 22 -5 48 -30 l42 -41 59 60 c32
32 62 57 67 54 5 -4 2 -14 -8 -25z m50 10 c-3 -5 -10 -7 -15 -3 -5 3 -7 10 -3
15 3 5 10 7 15 3 5 -3 7 -10 3 -15z m40 0 c-3 -5 -10 -7 -15 -3 -5 3 -7 10 -3
15 3 5 10 7 15 3 5 -3 7 -10 3 -15z m1593 8 c0 -8 -6 -14 -14 -14 -9 0 -10 4
-2 14 6 7 12 13 14 13 1 0 2 -6 2 -13z m-1493 -29 c-3 -5 -12 -4 -20 3 -7 6
-11 15 -8 21 3 5 12 4 20 -3 7 -6 11 -15 8 -21z m-887 5 c0 -9 -4 -10 -14 -2
-7 6 -13 12 -13 14 0 1 6 2 13 2 8 0 14 -6 14 -14z m252 3 c11 -14 6 -15 -27
-7 -4 1 8 21 12 21 2 0 9 -6 15 -14z m115 -48 c-3 -5 -13 -3 -21 4 -9 7 -24
14 -35 14 -31 2 -32 3 -13 24 18 20 18 20 46 -6 16 -15 26 -31 23 -36z m180
-60 c-3 -5 -10 -6 -15 -2 -5 3 -7 10 -3 15 3 5 0 8 -8 7 -7 -2 -12 3 -10 10 1
6 -4 11 -10 10 -7 -2 -12 3 -10 9 1 7 -4 12 -10 10 -7 -1 -12 4 -10 11 1 6 -4
11 -10 10 -7 -2 -12 2 -11 8 1 6 -4 11 -12 11 -8 0 -13 -5 -12 -11 1 -6 -4
-10 -10 -8 -7 1 -12 -1 -12 -5 3 -17 -2 -24 -12 -17 -7 4 0 17 17 35 l28 29
58 -57 c31 -31 55 -60 52 -65z m1936 118 c0 -2 -8 -10 -17 -17 -16 -13 -17
-12 -4 4 13 16 21 21 21 13z m-340 -22 c0 -8 -19 -13 -24 -6 -3 5 1 9 9 9 8 0
15 -2 15 -3z m-1616 -116 c-3 -5 -10 -6 -15 -2 -5 3 -7 10 -3 15 3 5 0 8 -8 7
-7 -2 -12 3 -10 9 1 7 -4 12 -10 10 -7 -1 -12 4 -10 11 1 6 -4 11 -10 10 -7
-2 -12 2 -11 8 1 6 -4 11 -12 11 -8 0 -13 -5 -12 -11 1 -6 -3 -10 -9 -9 -6 1
-11 -4 -11 -12 0 -8 5 -11 10 -8 6 4 7 1 2 -7 -6 -9 -4 -11 5 -5 9 5 11 4 6
-4 -5 -7 -2 -10 6 -9 7 2 12 -3 10 -10 -1 -8 2 -11 9 -6 8 5 9 3 4 -6 -6 -9
-4 -11 5 -5 9 6 11 4 5 -6 -5 -8 -5 -11 0 -7 4 4 14 3 21 -3 8 -7 14 -7 19 1
3 6 11 8 16 4 6 -4 6 -11 -2 -20 -9 -11 -15 -11 -25 -3 -8 6 -14 8 -14 3 0 -4
-22 14 -50 41 l-50 49 27 28 27 28 48 -47 c26 -25 45 -50 42 -55z m180 61 c-3
-5 -10 -7 -15 -3 -5 3 -7 9 -5 13 3 4 -1 8 -9 8 -8 0 -13 -5 -12 -11 1 -6 -4
-10 -11 -8 -8 1 -11 -2 -7 -8 5 -8 11 -7 21 1 12 10 18 6 16 -12 -1 -3 5 -6
13 -6 8 0 13 3 12 6 -1 3 3 7 8 8 6 0 9 -2 8 -6 -1 -4 4 -8 12 -8 8 0 13 4 12
8 -1 4 3 6 8 6 6 -1 9 -5 8 -8 -1 -3 4 -6 12 -6 8 0 13 4 12 8 -1 4 3 7 8 7 6
0 9 -4 7 -10 -1 -5 2 -7 7 -4 5 4 12 2 15 -2 4 -7 49 -9 64 -3 7 3 17 -5 14
-12 -1 -5 2 -6 7 -3 5 4 12 2 16 -3 3 -5 14 -8 25 -6 14 3 18 0 14 -8 -4 -7
-4 -9 1 -5 4 4 14 3 21 -3 8 -7 14 -7 19 1 3 6 11 8 16 4 6 -3 5 -12 -3 -22
-11 -15 -11 -15 3 -5 21 17 33 5 16 -16 -10 -14 -10 -14 5 -3 20 16 34 -1 15
-17 -11 -8 -20 -5 -38 15 -22 24 -56 43 -87 50 -8 1 -21 6 -30 10 -9 4 -35 9
-57 11 -22 2 -51 5 -65 6 -14 1 -30 -1 -37 -6 -6 -4 -14 -3 -17 2 -4 6 -13 8
-21 4 -9 -3 -21 0 -29 6 -7 6 -16 8 -20 4 -3 -4 -16 -8 -28 -10 -27 -4 -55
-28 -71 -61 -11 -22 -31 -34 -24 -14 1 4 7 6 12 4 6 -2 7 0 3 4 -4 4 -3 13 3
20 7 8 6 14 -2 20 -7 4 -9 3 -5 -4 3 -6 2 -13 -3 -16 -5 -4 -12 -2 -15 2 -8
13 36 50 55 47 10 -2 34 15 55 36 35 36 39 38 56 23 9 -9 15 -21 12 -25z m200
0 c-3 -5 -10 -7 -15 -3 -5 3 -7 9 -5 13 3 4 -1 8 -9 8 -8 0 -14 -3 -13 -6 1
-16 -3 -22 -13 -16 -7 5 -4 14 7 26 16 18 19 18 35 3 10 -9 16 -21 13 -25z
m100 18 c-4 -7 -3 -9 1 -4 11 9 46 -23 39 -35 -3 -4 -1 -7 4 -6 6 2 9 -1 9 -7
-1 -5 -5 -9 -8 -8 -3 1 -6 -4 -6 -12 0 -8 5 -13 11 -12 6 1 10 -3 9 -9 -1 -6
4 -11 12 -11 8 0 14 3 13 6 -1 16 3 22 13 16 7 -5 4 -14 -7 -26 -17 -19 -18
-19 -45 7 -16 15 -26 31 -23 36 3 5 2 7 -3 6 -4 -2 -8 2 -8 7 0 6 3 9 6 8 3
-1 6 4 6 11 0 7 -6 13 -13 13 -7 0 -12 -4 -11 -8 1 -4 -2 -7 -8 -7 -5 0 -9 4
-7 9 1 5 -1 8 -5 7 -5 -2 -9 2 -9 7 -1 6 2 9 7 8 5 -2 8 0 8 5 -3 16 2 23 11
17 6 -4 7 -12 4 -18z m1190 5 c3 -5 -1 -9 -9 -9 -8 0 -12 4 -9 9 3 4 7 8 9 8
2 0 6 -4 9 -8z m-1450 -23 c-3 -5 -10 -7 -15 -3 -5 3 -7 10 -3 15 3 5 10 7 15
3 5 -3 7 -10 3 -15z m40 0 c-3 -5 -10 -7 -15 -3 -5 3 -7 10 -3 15 3 5 10 7 15
3 5 -3 7 -10 3 -15z m81 -10 c3 6 11 9 16 5 16 -9 1 -21 -24 -20 -29 2 -59 24
-51 38 3 5 16 0 29 -12 15 -14 25 -18 30 -11z m98 -12 c-3 -5 -1 -7 4 -4 6 4
18 -2 27 -12 10 -11 13 -22 8 -25 -5 -3 -15 0 -21 8 -7 8 -20 13 -29 11 -9 -1
-25 4 -35 13 -16 14 -16 16 0 34 15 17 18 17 34 2 10 -9 16 -21 12 -27z m181
22 c-3 -5 -9 -7 -13 -5 -4 3 -8 -1 -8 -9 0 -8 4 -13 8 -12 4 1 7 -2 7 -8 0 -5
-3 -9 -7 -8 -4 1 -8 -4 -8 -11 0 -7 6 -13 13 -13 7 0 13 3 12 6 -1 16 3 22 13
16 7 -5 4 -14 -7 -26 -16 -18 -19 -18 -35 -3 -10 9 -17 20 -14 24 2 4 -2 7
-10 7 -8 0 -14 -3 -13 -6 1 -16 -3 -22 -13 -16 -14 9 20 47 35 38 6 -3 8 -2 3
2 -9 10 22 46 34 39 5 -3 7 -10 3 -15z m30 -10 c-9 -10 -21 -16 -26 -13 -5 3
-2 14 8 25 9 10 21 16 26 13 5 -3 2 -14 -8 -25z m50 10 c-3 -5 -10 -7 -15 -3
-5 3 -7 10 -3 15 3 5 10 7 15 3 5 -3 7 -10 3 -15z m890 0 c3 -3 -5 -5 -19 -5
-13 0 -22 3 -19 7 4 8 30 6 38 -2z m-1611 -82 c-3 -5 -23 8 -44 29 -21 20 -36
41 -32 47 3 5 23 -8 44 -29 21 -20 36 -41 32 -47z m1374 70 c0 -8 -6 -14 -14
-14 -9 0 -10 4 -2 14 6 7 12 13 14 13 1 0 2 -6 2 -13z m520 0 c0 -8 -6 -14
-14 -14 -9 0 -10 4 -2 14 6 7 12 13 14 13 1 0 2 -6 2 -13z m-2923 -5 c3 -5 -1
-9 -9 -9 -8 0 -12 4 -9 9 3 4 7 8 9 8 2 0 6 -4 9 -8z m2880 0 c3 -5 -1 -9 -9
-9 -8 0 -12 4 -9 9 3 4 7 8 9 8 2 0 6 -4 9 -8z m-2297 -16 c-1 -5 4 -11 11
-12 6 -1 15 -2 18 -3 4 0 1 -8 -6 -16 -7 -8 -17 -12 -22 -9 -5 3 -7 9 -4 12 3
3 -1 13 -9 22 -13 14 -13 17 -1 17 8 0 14 -5 13 -11z m-219 -62 c-1 -5 -9 -9
-16 -10 -10 -2 -11 1 -1 12 12 14 24 13 17 -2z m1082 -6 c0 -5 4 -7 9 -4 10 6
19 -12 31 -60 7 -31 5 -33 -28 -25 -2 1 0 7 5 14 12 20 12 35 -1 46 -9 8 -13
7 -13 -4 0 -8 3 -12 7 -10 4 2 7 -3 7 -11 0 -24 -22 4 -22 29 -1 12 -6 21 -11
20 -6 -1 -11 4 -11 12 0 7 6 11 14 8 7 -3 13 -9 13 -15z m440 10 c0 -8 -4 -9
-37 -12 -10 -1 -25 -6 -33 -11 -24 -15 -38 -14 -36 3 2 8 10 18 20 22 25 8 86
7 86 -2z m-1667 -20 c-4 -7 -8 -17 -8 -22 0 -5 -8 -10 -19 -12 -16 -2 -16 0 5
22 24 26 35 32 22 12z m1331 -59 c3 -21 1 -26 -12 -24 -10 1 -18 11 -18 21 -1
10 -3 24 -4 29 -1 6 -2 13 -1 18 0 4 -3 7 -9 7 -5 0 -10 6 -10 12 0 22 49 -36
54 -63z m495 47 c20 -18 29 -49 14 -44 -5 2 -8 -1 -8 -7 0 -5 5 -8 10 -7 6 2
6 0 2 -4 -13 -13 -97 -11 -108 2 -6 7 -17 10 -25 7 -17 -6 -46 15 -38 28 3 5
10 7 15 3 5 -3 7 -9 5 -13 -3 -4 6 -7 19 -7 13 0 22 3 20 6 -2 4 2 7 10 7 8 0
12 -3 10 -7 -2 -4 8 -6 22 -5 21 1 27 6 28 26 2 22 -2 25 -31 24 -18 0 -36 -4
-40 -7 -8 -9 -26 1 -20 11 10 15 94 6 115 -13z m-95 -8 c9 15 59 7 62 -10 2
-13 -20 -18 -33 -8 -8 7 -29 5 -39 -2 -7 -5 -17 -2 -24 7 -10 12 -16 13 -26 4
-11 -9 -11 -15 -3 -25 6 -8 9 -15 5 -15 -15 -3 -26 -7 -28 -9 -5 -4 -137 -6
-133 -2 2 2 5 2 8 0 3 -1 14 6 26 16 12 11 21 16 21 11 0 -4 7 -2 15 5 8 7 15
9 15 5 0 -4 7 -2 15 5 8 7 15 9 15 5 0 -5 9 0 20 10 11 10 20 14 20 10 0 -5 5
-4 12 3 9 9 16 8 29 -4 9 -8 20 -11 23 -6z m-340 -9 c-3 -5 -10 -7 -15 -3 -5
3 -7 10 -3 15 3 5 10 7 15 3 5 -3 7 -10 3 -15z"/>
<path d="M2481 3544 c6 -8 8 -14 3 -14 -4 0 5 -13 21 -30 16 -16 25 -30 20
-30 -5 0 4 -13 20 -30 16 -16 25 -30 20 -30 -5 0 3 -13 18 -28 15 -16 25 -31
22 -34 -3 -3 1 -11 10 -18 8 -7 15 -9 15 -5 0 5 10 0 23 -11 l22 -19 -19 23
c-11 12 -15 22 -11 22 5 0 -9 18 -30 40 -21 22 -35 40 -31 40 5 0 3 7 -4 15
-7 8 -9 15 -4 15 4 0 -3 11 -16 25 -13 14 -20 25 -16 25 5 0 3 7 -4 15 -6 8
-17 13 -23 12 -6 -1 -11 4 -12 12 0 8 -8 15 -18 17 -15 2 -16 0 -6 -12z m42
-29 c4 0 7 -4 8 -10 0 -5 10 -20 21 -32 12 -13 18 -23 14 -23 -5 0 -2 -8 5
-17 7 -10 1 -7 -14 6 -15 14 -25 27 -22 30 3 2 -7 18 -22 34 -16 17 -21 26
-13 21 8 -5 18 -9 23 -9z m113 -173 c-6 -5 -16 -3 -15 4 1 3 -12 20 -28 37
-27 30 -26 30 9 -2 21 -19 36 -36 34 -39z"/>
<path d="M3169 3557 c-1 -4 -2 -13 -3 -19 0 -7 -11 -13 -23 -13 -12 0 -33 -11
-47 -24 l-26 -25 20 -21 c11 -12 17 -25 13 -29 -5 -4 -1 -6 7 -4 9 2 14 -3 12
-12 -2 -8 25 13 60 47 35 34 67 61 72 60 12 -3 17 31 6 38 -5 3 -12 1 -15 -5
-5 -8 -11 -7 -21 1 -14 11 -15 10 -18 -11 -1 -13 -21 -13 -21 -1 0 11 -15 27
-16 18z m78 -16 c6 6 10 5 10 -5 0 -8 -3 -13 -7 -11 -4 2 -31 -20 -60 -50
l-54 -55 -28 27 -28 27 21 22 c11 12 28 21 37 19 9 -1 22 2 29 7 7 6 14 5 18
-2 5 -8 11 -8 21 1 7 6 11 16 7 23 -4 7 -1 7 8 -1 11 -9 19 -9 26 -2z"/>
<path d="M3209 3513 c-13 -16 -12 -17 4 -4 9 7 17 15 17 17 0 8 -8 3 -21 -13z"/>
<path d="M3166 3511 c-4 -5 -15 -8 -25 -6 -11 2 -27 -5 -37 -16 -9 -10 -14
-20 -11 -20 4 -1 13 -2 20 -3 6 0 12 -7 12 -13 0 -7 5 -13 10 -13 6 0 10 6 10
13 0 6 5 12 10 12 18 0 33 15 31 30 -3 20 -13 28 -20 16z m10 -18 c-2 -10 -7
-18 -12 -18 -5 0 -14 -4 -21 -8 -6 -4 -14 -3 -18 3 -4 6 -12 7 -18 3 -8 -4 -7
-1 1 9 7 9 22 15 32 13 11 -2 22 0 25 6 9 14 13 11 11 -8z"/>
<path d="M3126 3478 c3 -5 10 -6 15 -3 13 9 11 12 -6 12 -8 0 -12 -4 -9 -9z"/>
<path d="M3289 3557 c-5 -26 -4 -34 5 -46 6 -8 11 -21 11 -30 0 -9 4 -23 10
-31 5 -8 10 -28 11 -45 1 -16 2 -31 4 -32 1 -2 4 -7 5 -13 1 -5 4 -12 5 -15 1
-3 3 -18 4 -33 0 -16 7 -36 14 -45 9 -10 10 -17 2 -22 -6 -3 -7 -12 -3 -18 4
-7 8 -29 9 -49 1 -21 3 -40 4 -43 1 -3 3 -13 4 -22 1 -10 4 -22 7 -28 3 -5 5
-22 4 -37 -1 -15 2 -25 7 -22 4 3 8 -2 8 -11 0 -9 -4 -14 -8 -11 -4 2 -8 -11
-8 -29 0 -18 5 -31 10 -28 5 4 7 -3 4 -15 -4 -12 -2 -25 3 -28 6 -3 6 -11 1
-17 -7 -10 -9 -131 -2 -147 1 -3 2 -8 2 -11 -1 -4 7 -14 18 -24 19 -17 23 -4
7 22 -4 6 -3 14 1 17 10 6 10 46 -1 63 -4 6 -3 15 3 18 8 5 8 11 0 20 -8 10
-8 15 0 20 8 5 8 10 0 20 -8 9 -8 15 0 20 6 3 7 12 3 18 -4 7 -8 47 -9 90 -1
42 -3 79 -4 82 -1 3 -3 22 -4 43 -1 20 -4 42 -7 47 -3 6 -5 22 -4 37 1 15 -2
25 -6 22 -4 -2 -10 0 -13 5 -4 5 -2 12 2 15 8 4 9 56 2 64 -1 1 -4 11 -5 22
-1 11 -4 22 -5 25 -1 3 -4 14 -5 25 -1 11 -4 22 -5 25 -1 3 -4 10 -5 15 -1 6
-4 12 -5 15 -1 3 -4 14 -5 25 -1 11 -4 22 -5 25 -1 3 -4 14 -5 25 -1 11 -3 23
-4 26 0 4 -7 2 -14 -5 -10 -8 -17 -7 -25 1 -7 7 -13 9 -13 5z m37 -16 c9 7 12
5 9 -8 -1 -10 0 -22 4 -28 3 -5 6 -18 7 -27 1 -10 3 -20 4 -23 1 -3 4 -9 5
-15 1 -5 4 -12 5 -15 1 -3 4 -14 5 -25 1 -11 4 -22 5 -25 1 -3 4 -14 5 -25 1
-11 4 -21 5 -22 6 -8 6 -59 -1 -64 -11 -7 -23 17 -25 49 -1 15 -3 29 -4 32 -1
3 -4 10 -5 15 -1 6 -4 12 -5 15 -1 3 -3 17 -4 33 -1 15 -6 34 -11 42 -5 8 -10
22 -10 30 0 8 -5 22 -10 30 -14 23 -16 45 -3 32 8 -8 15 -8 24 -1z m69 -338
c-1 -16 1 -32 4 -38 9 -16 9 -55 -1 -61 -4 -3 -6 -10 -2 -15 3 -5 9 -7 13 -5
3 3 7 -11 7 -29 0 -26 -3 -31 -12 -24 -7 6 -11 19 -9 29 2 11 0 22 -5 25 -5 3
-7 14 -5 25 2 11 0 22 -4 24 -4 3 -7 24 -6 46 1 22 -2 43 -7 46 -4 3 -6 10 -2
15 11 18 31 -9 29 -38z m21 -227 c0 -26 -3 -32 -12 -25 -13 11 -13 26 -1 47
12 18 13 16 13 -22z m8 -67 c-3 -5 -10 -7 -15 -3 -5 3 -7 10 -3 15 3 5 10 7
15 3 5 -3 7 -10 3 -15z m-4 -44 c-8 -10 -8 -15 0 -20 8 -5 8 -10 0 -20 -6 -7
-7 -16 -2 -19 5 -3 8 -18 6 -33 -3 -36 -2 -35 -14 -28 -8 5 -8 11 0 20 6 7 7
16 2 18 -4 3 -7 27 -6 54 2 58 2 56 14 48 8 -5 8 -11 0 -20z"/>
<path d="M3314 3511 c7 -9 12 -24 11 -33 -2 -9 4 -23 13 -30 15 -11 15 -11 6
2 -6 8 -10 23 -9 32 2 10 -1 20 -6 24 -5 3 -7 9 -5 13 3 4 -1 8 -9 8 -13 0
-13 -3 -1 -16z"/>
<path d="M3346 3403 c1 -16 3 -29 4 -30 1 -2 3 -7 4 -12 0 -5 4 -12 8 -16 5
-6 3 25 -2 33 -2 1 -3 11 -4 21 0 11 -4 22 -7 25 -3 4 -5 -6 -3 -21z"/>
<path d="M3364 3306 c1 -14 4 -28 7 -31 3 -3 5 6 5 19 -1 14 -4 28 -7 31 -3 3
-5 -6 -5 -19z"/>
<path d="M3384 3156 c1 -8 5 -18 8 -22 4 -3 5 1 4 10 -1 8 -5 18 -8 22 -4 3
-5 -1 -4 -10z"/>
<path d="M2070 3475 c-7 -8 -9 -15 -5 -15 5 0 0 -9 -10 -20 -10 -11 -15 -20
-10 -20 4 0 2 -7 -5 -15 -7 -8 -11 -15 -9 -16 58 -15 93 13 63 51 -6 8 -10 23
-9 33 4 21 1 21 -15 2z m26 -62 c-2 -11 -13 -18 -29 -18 -22 -2 -25 1 -16 12
6 7 8 13 4 13 -4 0 -2 7 5 15 15 18 39 3 36 -22z"/>
<path d="M2069 3439 c0 -2 -2 -11 -4 -20 -1 -9 3 -16 10 -16 7 0 12 6 11 13
-2 13 -15 31 -17 23z"/>
<path d="M1283 3376 c1 -6 -4 -10 -10 -8 -7 1 -12 -4 -10 -10 1 -7 -3 -12 -9
-11 -6 1 -11 -4 -11 -11 0 -7 6 -13 13 -13 7 0 12 4 11 8 -1 4 3 7 8 7 6 0 9
-3 8 -7 -1 -4 4 -8 11 -8 7 0 13 6 13 13 0 7 -4 12 -8 11 -4 -1 -7 3 -7 8 0 6
3 9 7 8 4 -1 8 4 8 11 0 7 -6 13 -13 13 -7 0 -12 -5 -11 -11z"/>
<path d="M1446 3372 c-3 -5 1 -9 9 -9 8 0 12 4 9 9 -3 4 -7 8 -9 8 -2 0 -6 -4
-9 -8z"/>
<path d="M1446 3338 c3 -5 10 -6 15 -3 13 9 11 12 -6 12 -8 0 -12 -4 -9 -9z"/>
<path d="M1203 3296 c1 -6 -5 -9 -13 -8 -8 2 -12 0 -8 -4 4 -4 2 -14 -4 -22
-7 -8 -13 -21 -14 -29 -2 -11 1 -12 11 -3 8 7 13 16 12 20 -1 4 3 8 8 8 6 0 9
-5 7 -11 -2 -6 5 -4 16 6 10 9 21 15 24 12 2 -3 5 2 5 9 0 8 -5 14 -11 13 -6
-1 -10 3 -9 9 1 6 -4 11 -12 11 -8 0 -13 -5 -12 -11z m21 -27 c-3 -5 -10 -7
-15 -3 -5 3 -7 10 -3 15 3 5 10 7 15 3 5 -3 7 -10 3 -15z"/>
<path d="M2969 3316 c-1 -3 -2 -9 -3 -13 -1 -5 -5 -14 -9 -20 -5 -7 -5 -13 -1
-13 3 0 0 -8 -7 -17 -7 -10 4 -2 24 16 20 19 37 37 37 40 0 2 -3 1 -7 -2 -3
-4 -12 -2 -20 4 -7 6 -14 9 -14 5z m15 -15 c3 -5 -2 -15 -12 -22 -15 -12 -16
-12 -5 2 7 9 10 19 6 22 -3 4 -4 7 0 7 3 0 8 -4 11 -9z"/>
<path d="M2870 3275 c-7 -8 -9 -15 -5 -15 4 0 1 -8 -6 -17 -13 -16 -12 -17 4
-4 9 8 15 16 12 19 -3 3 0 11 6 19 6 7 9 13 6 13 -2 0 -10 -7 -17 -15z"/>
<path d="M2935 3220 c-4 -6 -10 -8 -14 -6 -4 3 -8 -1 -8 -9 0 -13 4 -12 19 2
18 16 22 23 14 23 -3 0 -8 -5 -11 -10z"/>
<path d="M2889 3233 c-13 -16 -12 -17 4 -4 16 13 21 21 13 21 -2 0 -10 -8 -17
-17z"/>
<path d="M589 3053 c-6 -14 -3 -50 4 -60 5 -7 6 -13 2 -13 -5 0 0 -9 10 -20
17 -19 19 -19 36 -4 18 16 16 40 -2 28 -5 -3 -7 -9 -5 -13 3 -4 -1 -8 -9 -8
-8 0 -13 3 -10 5 3 3 -1 12 -8 20 -10 13 -9 14 1 8 8 -5 11 -3 10 5 -2 8 10
13 34 14 21 1 36 -3 35 -9 -1 -6 5 -10 13 -8 11 3 10 -2 -4 -17 -10 -11 -22
-18 -27 -16 -4 3 -10 1 -13 -4 -4 -5 -2 -12 3 -15 5 -4 13 -2 16 4 5 8 11 8
20 0 10 -8 15 -8 20 0 5 8 11 8 19 1 9 -8 23 1 52 32 21 23 35 38 30 34 -5 -4
-18 1 -29 10 -10 10 -21 17 -23 16 -2 -2 -6 -2 -9 -2 -3 1 -14 3 -25 4 -11 1
-21 4 -22 5 -4 3 -118 6 -119 3z m119 -13 c1 -1 12 -3 25 -4 12 0 22 -7 22
-13 0 -7 5 -12 10 -10 6 1 9 6 7 11 -2 5 4 3 13 -4 14 -12 13 -16 -11 -41 -20
-21 -31 -26 -40 -18 -8 7 -14 7 -19 -1 -3 -6 -11 -8 -16 -4 -6 4 -3 14 7 25
15 17 13 24 -8 20 -5 0 -7 4 -5 11 3 17 -64 18 -83 1 -14 -11 -16 -9 -16 10 0
21 4 23 56 21 30 -1 56 -3 58 -4z"/>
<path d="M707 3019 c20 -22 21 -27 8 -42 -8 -9 -10 -13 -3 -7 7 6 16 6 23 0 8
-7 19 -1 36 17 13 15 17 22 8 15 -13 -10 -19 -10 -28 1 -6 8 -8 16 -5 20 3 3
-2 4 -13 3 -10 -2 -25 1 -33 7 -8 6 -5 0 7 -14z m49 -36 c-7 -7 -21 -4 -21 5
0 4 -4 14 -9 22 -6 9 -1 7 12 -4 12 -11 20 -21 18 -23z"/>
<path d="M623 2993 c0 -9 4 -10 11 -3 6 6 15 5 27 -6 10 -9 19 -11 23 -5 4 5
1 13 -6 18 -22 13 -55 11 -55 -4z"/>
<path d="M3534 2798 c-5 -7 -9 -17 -9 -23 0 -5 -5 -10 -12 -10 -19 0 -27 -13
-30 -52 -3 -35 -2 -36 17 -18 11 10 20 14 20 10 0 -4 8 -1 18 8 10 10 22 14
26 10 4 -5 7 -3 6 2 -1 6 -1 12 0 15 5 11 7 60 2 55 -3 -3 -11 0 -18 6 -9 7
-15 6 -20 -3z m32 -32 c1 -8 -9 -25 -22 -37 -13 -12 -24 -19 -24 -15 0 5 -6 3
-13 -3 -11 -9 -14 -5 -12 17 0 15 6 27 12 27 13 0 27 13 29 26 1 5 2 12 3 16
2 11 25 -15 27 -31z"/>
<path d="M3545 2783 c3 -3 -1 -13 -7 -21 -7 -8 -13 -21 -14 -29 -2 -12 1 -12
16 2 18 16 21 39 7 50 -4 3 -5 2 -2 -2z"/>
<path d="M2240 2094 c0 -8 5 -12 10 -9 6 4 8 11 5 16 -9 14 -15 11 -15 -7z"/>
<path d="M2173 2078 c-12 -20 -12 -35 1 -35 7 0 12 11 12 24 0 26 -2 28 -13
11z"/>
<path d="M2162 1978 c2 -7 -3 -12 -9 -10 -7 1 -12 -4 -10 -10 1 -7 -5 -11 -13
-10 -8 2 -12 0 -7 -4 4 -4 -1 -16 -10 -26 -14 -15 -14 -19 -3 -16 9 2 14 -3
12 -12 -3 -12 -1 -13 10 -2 7 7 13 23 13 35 1 14 6 21 15 19 8 -2 12 0 8 4 -4
4 -3 13 3 20 7 8 7 14 -1 19 -6 4 -9 1 -8 -7z m-25 -63 c0 -8 -4 -12 -9 -9 -5
3 -6 10 -3 15 9 13 12 11 12 -6z"/>
<path d="M2320 1974 c0 -8 5 -12 10 -9 6 4 8 11 5 16 -9 14 -15 11 -15 -7z"/>
<path d="M2012 1716 c-3 -6 -8 -22 -9 -36 -1 -14 1 -18 4 -10 3 8 14 24 24 36
16 17 17 21 4 21 -9 0 -19 -5 -23 -11z"/>
<path d="M1963 1655 c0 -6 6 -12 12 -12 6 0 12 6 12 12 0 6 -6 12 -12 12 -6 0
-12 -6 -12 -12z"/>
<path d="M1909 1593 c-13 -16 -12 -17 4 -4 9 7 17 15 17 17 0 8 -8 3 -21 -13z"/>
<path d="M1380 1476 c0 -9 5 -14 10 -11 6 3 10 2 10 -3 0 -6 6 -12 13 -15 8
-3 14 1 14 9 0 8 -3 12 -5 9 -3 -3 -14 2 -24 12 -17 15 -18 15 -18 -1z"/>
<path d="M1501 1454 c0 -11 3 -14 6 -6 3 7 2 16 -1 19 -3 4 -6 -2 -5 -13z"/>
<path d="M1521 1434 c0 -11 3 -14 6 -6 3 7 2 16 -1 19 -3 4 -6 -2 -5 -13z"/>
<path d="M573 1405 c0 -8 4 -12 9 -9 5 3 6 10 3 15 -9 13 -12 11 -12 -6z"/>
<path d="M1600 1381 c0 -5 7 -12 16 -15 14 -5 15 -4 4 9 -14 17 -20 19 -20 6z"/>
<path d="M1680 1338 c0 -4 4 -8 9 -8 6 0 12 4 15 8 3 5 -1 9 -9 9 -8 0 -15 -4
-15 -9z"/>
<path d="M1806 1332 c-3 -5 1 -9 9 -9 8 0 12 4 9 9 -3 4 -7 8 -9 8 -2 0 -6 -4
-9 -8z"/>
<path d="M2886 1332 c-3 -5 1 -9 9 -9 8 0 12 4 9 9 -3 4 -7 8 -9 8 -2 0 -6 -4
-9 -8z"/>
<path d="M2883 1295 c0 -6 6 -12 12 -12 6 0 12 6 12 12 0 6 -6 12 -12 12 -6 0
-12 -6 -12 -12z"/>
<path d="M2883 1253 c0 -9 4 -10 14 -2 7 6 13 12 13 14 0 1 -6 2 -13 2 -8 0
-14 -6 -14 -14z"/>
<path d="M780 1210 c0 -5 6 -10 14 -10 8 0 18 5 21 10 3 6 -3 10 -14 10 -12 0
-21 -4 -21 -10z"/>
<path d="M2863 1193 c0 -9 4 -10 14 -2 7 6 13 12 13 14 0 1 -6 2 -13 2 -8 0
-14 -6 -14 -14z"/>
<path d="M840 1180 c0 -5 4 -10 9 -10 6 0 13 5 16 10 3 6 -1 10 -9 10 -9 0
-16 -4 -16 -10z"/>
<path d="M2600 1116 c0 -7 7 -13 15 -13 8 0 15 4 15 8 0 4 -7 9 -15 13 -9 3
-15 0 -15 -8z"/>
<path d="M2520 1096 c0 -2 7 -6 15 -10 8 -3 15 -1 15 4 0 6 -7 10 -15 10 -8 0
-15 -2 -15 -4z"/>
<path d="M961 1014 c0 -11 3 -14 6 -6 3 7 2 16 -1 19 -3 4 -6 -2 -5 -13z"/>
<path d="M911 956 l-35 -41 39 37 c22 21 37 39 35 41 -3 2 -20 -15 -39 -37z"/>
<path d="M2464 947 l-29 -32 31 28 c32 28 55 26 29 -3 -13 -15 -13 -17 0 -17
8 0 13 3 10 5 -3 3 3 15 12 26 10 12 14 18 9 14 -5 -4 -14 -3 -21 2 -8 7 -21
0 -41 -23z"/>
<path d="M600 934 c-17 -9 -20 -14 -9 -14 9 0 22 7 29 15 15 18 13 18 -20 -1z"/>
<path d="M2209 933 c-13 -16 -12 -17 4 -4 16 13 21 21 13 21 -2 0 -10 -8 -17
-17z"/>
<path d="M2329 933 c-13 -16 -12 -17 4 -4 16 13 21 21 13 21 -2 0 -10 -8 -17
-17z"/>
<path d="M763 895 c0 -8 4 -12 9 -9 5 3 6 10 3 15 -9 13 -12 11 -12 -6z"/>
<path d="M849 893 c-13 -16 -12 -17 4 -4 9 7 17 15 17 17 0 8 -8 3 -21 -13z"/>
<path d="M2346 872 c-3 -5 1 -9 9 -9 8 0 12 4 9 9 -3 4 -7 8 -9 8 -2 0 -6 -4
-9 -8z"/>
<path d="M2520 854 c0 -8 5 -12 10 -9 6 4 8 11 5 16 -9 14 -15 11 -15 -7z"/>
<path d="M2552 778 c-15 -15 -16 -42 -2 -33 6 4 8 10 6 14 -3 4 1 8 9 8 8 0
13 -5 12 -11 -1 -6 3 -10 9 -9 6 1 11 -4 11 -12 0 -8 -4 -12 -9 -9 -4 3 -8 1
-8 -5 0 -12 37 -24 50 -16 5 3 10 0 10 -8 0 -7 7 -14 15 -14 9 0 14 7 13 16
-2 9 -7 14 -12 12 -4 -2 -27 15 -50 38 -33 32 -45 38 -54 29z"/>
<path d="M2560 734 c0 -8 5 -12 10 -9 6 4 8 11 5 16 -9 14 -15 11 -15 -7z"/>
<path d="M2485 290 c-4 -6 -11 -8 -16 -4 -5 3 -8 0 -7 -8 2 -7 -3 -12 -10 -10
-8 1 -11 -2 -7 -8 5 -8 12 -7 23 3 10 8 25 13 35 12 15 -3 16 -1 6 11 -14 17
-16 17 -24 4z"/>
<path d="M2406 272 c-3 -5 1 -9 9 -9 8 0 12 4 9 9 -3 4 -7 8 -9 8 -2 0 -6 -4
-9 -8z"/>
<path d="M2162 221 c2 -18 -4 -22 -16 -12 -10 8 -16 9 -21 1 -4 -6 -1 -9 7 -8
7 2 12 -2 11 -8 -1 -6 4 -11 12 -11 8 0 13 5 12 11 -1 6 3 10 9 9 6 -1 11 4
11 11 0 7 -6 13 -13 13 -7 0 -13 -3 -12 -6z"/>
<path d="M1111 2037 c-8 -10 -7 -14 2 -14 8 0 14 6 14 14 0 7 -1 13 -2 13 -2
0 -8 -6 -14 -13z"/>
<path d="M1083 1975 c0 -6 6 -12 12 -12 6 0 12 6 12 12 0 6 -6 12 -12 12 -6 0
-12 -6 -12 -12z"/>
<path d="M1120 1977 c0 -8 7 -14 15 -14 11 0 12 4 4 14 -6 7 -13 13 -15 13 -2
0 -4 -6 -4 -13z"/>
<path d="M1081 1934 c0 -11 3 -14 6 -6 3 7 2 16 -1 19 -3 4 -6 -2 -5 -13z"/>
<path d="M1081 1878 c-1 -11 -8 -16 -19 -13 -13 2 -18 -3 -18 -21 l0 -25 24
25 c13 13 22 30 19 37 -4 10 -6 9 -6 -3z"/>
<path d="M1181 1874 c0 -11 3 -14 6 -6 3 7 2 16 -1 19 -3 4 -6 -2 -5 -13z"/>
<path d="M3085 1851 c-3 -6 -10 -9 -15 -6 -9 6 -25 -13 -25 -30 0 -5 -4 -10
-10 -10 -17 0 -36 -16 -30 -25 3 -4 -1 -13 -8 -19 -8 -6 -12 -27 -11 -48 2
-49 2 -47 17 -34 8 6 17 9 20 6 4 -3 5 -2 2 2 -3 3 2 15 12 25 9 10 12 18 8
18 -4 0 0 9 11 21 10 12 18 24 17 28 -2 3 2 7 7 7 6 1 12 3 15 4 5 2 19 6 32
9 3 0 -1 9 -10 19 -8 9 -16 21 -15 25 0 15 -10 19 -17 8z m12 -8 c-4 -3 1 -15
10 -26 10 -11 13 -17 6 -14 -6 4 -14 3 -18 -3 -4 -6 -10 -8 -15 -5 -5 3 -11 1
-15 -5 -4 -6 -11 -8 -16 -5 -5 4 -9 -1 -9 -10 0 -10 5 -13 13 -9 6 4 4 -2 -6
-13 -9 -11 -15 -22 -12 -25 3 -2 -5 -14 -18 -26 l-23 -22 1 34 c0 18 7 42 15
51 8 10 14 21 13 24 -2 3 1 6 6 6 13 0 26 14 26 28 0 7 5 12 12 12 6 0 15 3
19 8 4 4 10 7 12 7 3 0 2 -3 -1 -7z"/>
<path d="M3083 1815 c0 -8 4 -12 9 -9 5 3 6 10 3 15 -9 13 -12 11 -12 -6z"/>
<path d="M3013 1758 c-4 -7 -8 -23 -9 -35 -1 -18 2 -21 13 -12 7 7 11 14 8 17
-3 3 0 11 6 18 6 8 6 14 0 18 -5 4 -13 1 -18 -6z"/>
<path d="M3029 1559 c0 -2 -2 -12 -4 -21 -2 -9 3 -22 11 -29 8 -6 12 -15 9
-18 -2 -4 2 -8 10 -8 11 0 12 4 4 14 -6 7 -8 13 -4 13 4 0 1 7 -6 17 -8 9 -12
18 -11 20 2 3 1 7 -2 11 -3 3 -6 3 -7 1z"/>
<path d="M3569 1555 c-1 -3 -2 -8 -3 -12 -1 -5 -4 -13 -8 -19 -4 -6 -1 -11 5
-11 7 0 13 11 13 24 0 21 -4 31 -7 18z"/>
<path d="M3543 1485 c4 -4 0 -17 -10 -27 -9 -10 -12 -18 -8 -18 4 0 0 -9 -10
-20 -10 -11 -14 -20 -10 -20 5 0 -2 -11 -15 -25 -13 -14 -20 -25 -15 -25 4 0
1 -8 -8 -17 -8 -10 -16 -21 -16 -25 -1 -5 -2 -10 -2 -13 -1 -3 -2 -15 -3 -27
0 -13 -7 -23 -13 -23 -7 0 -13 -4 -14 -10 0 -5 -8 -18 -16 -27 -9 -10 -12 -18
-8 -18 5 0 -4 -13 -19 -29 -21 -22 -25 -31 -14 -37 15 -10 42 -15 34 -7 -3 4
-1 12 5 20 6 7 8 13 4 13 -4 0 -1 7 6 17 8 9 14 26 14 37 1 13 6 20 15 18 8
-2 12 0 7 4 -4 4 0 16 10 26 9 10 12 18 8 18 -4 0 0 9 10 20 10 11 14 20 10
20 -4 0 0 9 10 20 10 11 14 20 10 20 -4 0 0 9 10 20 10 11 14 20 10 20 -5 0 4
14 20 30 16 17 30 37 31 46 1 9 0 13 -3 10 -4 -3 -13 0 -22 6 -9 7 -13 8 -8 3z
m1 -56 c-31 -33 -47 -40 -19 -9 10 11 15 20 10 20 -4 0 -2 7 5 15 7 8 17 12
22 9 5 -3 -3 -19 -18 -35z m-37 -57 c-10 -10 -14 -22 -10 -27 5 -4 2 -5 -5 -1
-11 6 -10 12 4 27 9 10 19 19 22 19 3 0 -2 -8 -11 -18z m-31 -57 c-1 -8 -8
-21 -16 -28 -10 -10 -11 -9 -4 3 5 8 9 18 10 23 3 14 4 17 8 17 2 0 3 -7 2
-15z m-60 -119 c-1 -8 -7 -20 -14 -28 -6 -8 -10 -17 -7 -20 3 -3 -1 -11 -9
-17 -22 -18 -15 13 9 39 10 11 15 20 11 20 -4 0 -4 5 -1 10 9 14 14 12 11 -4z"/>
<path d="M3069 1458 c7 -10 10 -18 5 -18 -4 0 2 -10 14 -23 12 -13 19 -27 15
-31 -5 -4 -1 -6 7 -4 8 2 14 -2 13 -8 -1 -6 15 -26 35 -45 l37 -34 -34 38
c-19 20 -31 37 -26 37 5 0 -1 10 -13 23 -12 13 -20 26 -17 29 3 2 -7 15 -22
29 -15 13 -21 16 -14 7z"/>
<path d="M3206 1272 c-3 -5 11 -24 32 -43 33 -31 34 -31 9 -3 -15 17 -25 33
-21 36 3 3 1 9 -5 12 -5 4 -12 2 -15 -2z"/>
<path d="M3214 1695 c0 -19 3 -22 13 -13 10 8 10 14 2 24 -15 18 -15 18 -15
-11z"/>
<path d="M3388 1672 c-8 -10 -9 -13 -1 -9 6 4 14 3 17 -2 5 -8 34 -8 44 -1 1
2 6 3 11 4 5 0 12 4 16 8 4 3 -1 5 -12 4 -10 -2 -22 -1 -28 3 -19 11 -34 9
-47 -7z m48 -4 c3 -4 -1 -5 -10 -4 -8 1 -18 5 -22 8 -3 4 1 5 10 4 8 -1 18 -5
22 -8z"/>
<path d="M1456 1641 c-4 -5 -2 -12 3 -15 5 -4 12 -2 15 3 4 5 2 12 -3 15 -5 4
-12 2 -15 -3z"/>
<path d="M1290 814 c-11 -12 -11 -15 1 -12 8 2 13 -3 11 -12 -3 -11 2 -10 17
4 11 10 18 23 15 27 -6 11 -15 12 -11 2 1 -5 -2 -9 -8 -10 -5 -2 -9 2 -7 7 3
14 -4 12 -18 -6z"/>
<path d="M1043 495 c0 -6 6 -12 12 -12 6 0 12 6 12 12 0 6 -6 12 -12 12 -6 0
-12 -6 -12 -12z"/>
<path d="M963 375 c0 -6 6 -12 12 -12 6 0 12 6 12 12 0 6 -6 12 -12 12 -6 0
-12 -6 -12 -12z"/>
<path d="M1883 335 c0 -6 6 -12 12 -12 6 0 12 6 12 12 0 6 -6 12 -12 12 -6 0
-12 -6 -12 -12z"/>
<path d="M794 413 c16 -20 36 -23 36 -6 0 4 -3 3 -7 0 -3 -4 -16 1 -27 10 -21
18 -21 18 -2 -4z"/>
<path d="M1963 295 c0 -6 6 -12 12 -12 6 0 12 6 12 12 0 6 -6 12 -12 12 -6 0
-12 -6 -12 -12z"/>
<path d="M2003 295 c0 -6 6 -12 12 -12 6 0 12 6 12 12 0 6 -6 12 -12 12 -6 0
-12 -6 -12 -12z"/>
<path d="M1146 278 c3 -5 10 -6 15 -3 13 9 11 12 -6 12 -8 0 -12 -4 -9 -9z"/>
<path d="M1403 173 c0 -9 4 -10 14 -2 7 6 13 12 13 14 0 1 -6 2 -13 2 -8 0
-14 -6 -14 -14z"/>
<path d="M1763 215 c0 -6 6 -12 12 -12 6 0 12 6 12 12 0 6 -6 12 -12 12 -6 0
-12 -6 -12 -12z"/>
<path d="M2125 130 c-4 -6 -11 -7 -17 -4 -7 4 -8 2 -4 -5 6 -9 11 -9 22 0 14
11 18 19 10 19 -3 0 -8 -5 -11 -10z"/>
<path d="M1843 55 c0 -8 4 -12 9 -9 5 3 6 10 3 15 -9 13 -12 11 -12 -6z"/>
<path d="M2345 92 c5 -26 -12 -39 -48 -37 -15 1 -25 -1 -22 -4 4 -3 22 -6 40
-6 19 -1 33 1 30 4 -3 2 2 12 10 21 14 15 14 19 1 29 -13 11 -15 9 -11 -7z"/>
<path d="M2180 85 c-7 -8 -16 -13 -20 -10 -5 3 -11 1 -15 -5 -4 -6 -10 -8 -15
-5 -5 3 -11 1 -15 -5 -4 -6 -10 -8 -15 -5 -5 3 -11 2 -14 -3 -8 -13 82 -8 96
6 6 6 8 12 4 12 -5 0 -3 7 4 15 7 8 10 15 7 15 -2 0 -10 -7 -17 -15z m-5 -24
c-9 -8 -36 -10 -30 -2 2 4 11 8 20 8 8 0 13 -3 10 -6z"/>
<path d="M2576 3502 c-3 -5 1 -9 9 -9 8 0 12 4 9 9 -3 4 -7 8 -9 8 -2 0 -6 -4
-9 -8z"/>
<path d="M2628 3419 c6 -9 10 -18 7 -21 -3 -3 1 -10 8 -16 10 -9 14 -8 14 3 0
8 -10 23 -21 32 -15 14 -18 14 -8 2z"/>
<path d="M2171 3169 c10 -62 21 -115 25 -118 8 -8 -4 102 -18 164 -21 92 -25
67 -7 -46z"/>
<path d="M3063 2923 c4 -6 3 -14 -2 -18 -6 -3 -8 -12 -4 -21 3 -8 -5 -26 -18
-41 -13 -14 -18 -23 -11 -19 15 9 16 -20 0 -30 -7 -5 -8 -2 -3 7 6 11 5 12 -5
2 -16 -15 -23 -46 -9 -37 5 3 6 11 3 17 -4 7 -3 9 1 4 5 -4 7 -37 6 -73 -1
-39 2 -71 9 -79 7 -9 9 -22 5 -32 -11 -25 -13 -83 -3 -89 4 -3 8 -12 8 -20 0
-8 -5 -12 -10 -9 -6 4 -8 10 -5 15 3 5 1 11 -5 15 -6 4 -7 11 -4 17 4 6 3 8
-3 5 -5 -3 -10 0 -10 8 0 8 4 12 7 10 4 -3 6 9 5 25 -1 16 1 28 5 25 3 -2 7 2
7 10 0 8 -4 12 -9 9 -5 -3 -7 0 -6 7 2 7 -6 13 -17 14 -16 0 -20 -7 -20 -30 0
-17 5 -30 13 -30 6 0 11 -4 10 -10 -2 -5 -6 -9 -10 -8 -10 4 -3 -24 11 -41 7
-9 10 -16 5 -16 -4 0 2 -10 14 -23 l22 -24 -20 -18 c-11 -10 -20 -15 -20 -10
0 4 -7 2 -15 -5 -8 -7 -15 -9 -15 -5 0 5 -8 1 -18 -8 -10 -10 -21 -15 -23 -12
-7 7 -72 -62 -75 -79 -3 -23 -36 -66 -45 -60 -5 3 -8 0 -7 -8 2 -7 -3 -12 -10
-10 -8 1 -11 -2 -8 -7 4 -5 2 -12 -4 -16 -6 -4 -8 -10 -5 -14 2 -5 -5 -17 -18
-27 l-22 -19 20 25 20 25 -28 -24 -27 -25 27 -28 c14 -15 29 -26 31 -23 3 3
13 -2 23 -11 13 -12 19 -12 25 -3 4 7 3 10 -3 6 -6 -4 -16 0 -23 8 -7 8 -17
12 -23 8 -6 -3 -7 -1 -3 5 8 13 35 1 74 -33 17 -14 23 -16 20 -5 -2 10 6 14
27 15 17 0 35 3 41 7 6 4 14 4 18 0 8 -7 13 -8 42 -11 8 0 12 -6 9 -11 -5 -8
-11 -8 -20 0 -10 8 -15 8 -20 0 -5 -8 -10 -8 -20 0 -10 8 -15 8 -20 0 -5 -8
-10 -8 -20 0 -9 8 -15 8 -20 0 -8 -13 -11 -12 58 -14 32 -1 61 2 63 6 3 5 10
5 16 2 6 -4 8 -2 4 4 -3 6 -2 13 3 16 5 4 12 2 16 -4 4 -6 10 -8 15 -5 16 10
35 -29 36 -77 1 -26 3 -50 4 -53 1 -3 4 -9 5 -15 1 -5 4 -12 5 -15 1 -3 4 -9
5 -15 1 -5 4 -13 5 -17 1 -5 2 -11 2 -14 -1 -3 24 -30 55 -60 32 -30 51 -45
43 -34 -8 11 8 -1 36 -27 54 -52 65 -56 84 -33 13 16 35 10 24 -6 -3 -5 -10
-6 -16 -3 -7 5 -8 2 -3 -6 6 -9 4 -11 -5 -5 -8 5 -11 4 -6 -3 14 -22 -26 -4
-62 29 -32 30 -34 30 -9 3 15 -17 25 -33 22 -35 -3 -3 6 -15 18 -27 l23 -22
24 25 c13 14 20 25 15 25 -5 0 3 13 18 28 19 20 23 29 13 29 -8 0 -12 -5 -9
-10 4 -6 1 -7 -6 -3 -9 6 -8 13 5 27 19 22 29 25 18 7 -5 -9 -2 -8 9 1 10 8
15 16 12 19 -3 3 2 14 12 24 9 10 13 18 8 18 -4 0 -3 6 3 13 6 6 11 15 11 20
1 4 2 9 2 12 1 3 2 13 3 23 1 9 5 22 9 29 4 6 2 15 -3 18 -8 5 -5 14 7 27 9
11 13 18 8 16 -6 -2 -10 2 -10 7 0 6 3 9 6 8 3 -1 6 4 6 11 0 7 -6 13 -13 13
-7 0 -11 -4 -8 -8 2 -4 0 -10 -6 -14 -6 -4 -8 -10 -5 -15 3 -5 1 -11 -4 -15
-5 -3 -8 -14 -6 -25 3 -14 0 -18 -8 -13 -8 4 -8 2 1 -9 9 -12 10 -18 2 -23 -8
-5 -8 -10 0 -20 8 -9 8 -15 0 -20 -6 -3 -8 -10 -5 -15 3 -5 1 -11 -5 -15 -6
-4 -8 -10 -5 -15 3 -5 1 -11 -5 -15 -6 -4 -7 -11 -4 -17 4 -7 2 -8 -4 -4 -10
6 -7 28 8 51 9 14 6 107 -3 123 -6 8 -1 19 13 30 24 20 35 96 17 120 -5 6 -6
12 -2 12 5 0 0 9 -9 19 -11 12 -14 21 -7 26 6 3 11 -1 11 -10 0 -9 5 -13 10
-10 6 4 7 11 4 17 -4 6 -2 8 3 5 6 -4 16 0 23 8 13 16 35 10 24 -6 -3 -5 -10
-6 -16 -3 -7 5 -8 2 -3 -6 6 -9 4 -11 -5 -5 -9 6 -11 4 -5 -5 6 -9 4 -11 -5
-5 -9 6 -11 4 -5 -5 5 -8 4 -11 -2 -7 -5 3 -10 0 -10 -8 0 -12 3 -12 15 -2 8
6 27 12 41 12 14 0 32 4 39 8 6 5 12 5 12 1 0 -4 9 1 20 11 14 13 17 21 9 31
-7 8 -7 14 1 19 8 5 8 10 0 20 -8 10 -8 15 0 20 17 11 11 172 -7 187 -19 16
-41 19 -49 7 -3 -6 -11 -5 -20 2 -7 6 -11 15 -9 20 3 4 -3 6 -15 4 -11 -2 -22
0 -25 4 -2 5 -18 7 -34 6 -27 -2 -58 17 -60 38 -1 4 -1 8 -2 10 0 1 -2 16 -2
33 -1 17 -8 38 -16 47 -7 10 -10 17 -6 17 5 0 1 8 -8 18 -10 10 -14 22 -10 26
5 4 1 6 -7 4 -8 -2 -14 2 -13 8 1 6 -11 23 -26 38 -21 20 -31 24 -36 15 -5 -8
-4 -10 4 -5 6 4 11 4 10 -1 -1 -4 0 -10 1 -13 8 -21 7 -39 -2 -34 -7 4 -8 2
-4 -4 3 -6 15 -9 26 -7 13 3 18 0 14 -7 -5 -7 -2 -8 6 -3 9 6 11 4 5 -5 -6 -9
-4 -11 5 -5 9 6 11 4 5 -5 -6 -9 -4 -11 5 -5 8 5 11 4 6 -3 -3 -6 -2 -13 4
-17 6 -4 7 -11 4 -17 -5 -7 -2 -8 6 -3 8 5 11 4 6 -3 -3 -6 -2 -13 3 -16 10
-7 9 -25 -2 -43 -4 -6 -3 -14 2 -17 11 -7 9 -25 -3 -45 -7 -10 -6 -12 4 -6 9
5 11 4 6 -4 -4 -6 -4 -11 1 -10 4 1 10 0 13 -1 13 -6 98 -5 94 1 -5 10 23 5
33 -5 4 -4 4 -6 -2 -4 -5 1 -11 0 -12 -4 -6 -18 -2 -20 14 -7 9 8 14 9 11 4
-4 -7 3 -11 17 -11 14 0 21 4 17 11 -3 5 1 4 10 -2 8 -7 19 -9 23 -5 5 4 5 1
0 -7 -6 -10 -4 -12 5 -6 8 5 11 4 7 -2 -4 -5 -19 -9 -34 -8 -15 1 -31 -3 -35
-9 -4 -6 -15 -3 -28 9 -27 24 -64 32 -113 22 -24 -5 -93 -74 -108 -108 -6 -16
-14 -29 -18 -29 -3 0 -21 14 -38 31 -18 16 -33 27 -33 23 0 -4 -8 0 -17 8 -18
15 -57 32 -59 26 -1 -2 -10 4 -20 13 -11 9 -31 15 -46 14 -15 -1 -25 2 -22 7
3 4 10 5 16 2 6 -4 8 -3 5 3 -3 5 0 10 8 10 8 0 12 -4 10 -8 -6 -9 22 -5 32 5
4 4 1 6 -7 4 -8 -2 -14 3 -12 10 1 8 -2 11 -7 8 -5 -4 -12 -2 -16 4 -11 18 22
10 40 -10 10 -11 21 -17 25 -15 5 3 38 -25 74 -61 l66 -66 10 27 c5 14 10 30
10 34 0 5 7 14 15 21 8 6 14 15 13 18 0 4 1 9 2 12 1 3 3 13 5 23 2 10 7 26
11 35 4 9 8 20 9 25 2 4 3 8 5 10 9 11 3 76 -10 91 -8 10 -14 21 -13 25 0 3
-3 5 -8 4 -5 -2 -8 2 -6 9 2 11 -3 14 -36 17 -9 1 -13 12 -12 29 1 15 -2 33
-8 40 -5 6 -6 12 -2 12 4 0 2 7 -5 15 -7 8 -9 15 -4 15 4 0 -5 13 -21 30 -15
16 -31 27 -35 25 -4 -2 -20 9 -35 25 -15 16 -33 27 -38 23 -6 -3 -7 -1 -4 4 4
6 -3 19 -15 29 -12 11 -18 14 -15 7z m137 -118 c13 -14 21 -25 18 -25 -2 0
-15 11 -28 25 -13 14 -21 25 -18 25 2 0 15 -11 28 -25z m96 -102 c-7 -7 -21
-4 -21 5 0 4 -4 14 -9 22 -6 9 -1 7 12 -4 12 -11 20 -21 18 -23z m-290 -88 c0
-12 -5 -22 -11 -22 -6 0 -11 10 -11 22 0 12 5 22 11 22 6 0 11 -10 11 -22z
m427 -130 c15 1 25 -1 22 -4 -11 -10 -76 -8 -83 3 -16 27 -10 37 11 19 13 -12
34 -19 50 -18z m-435 -71 c-4 -3 -13 -7 -22 -8 -20 -3 -67 -47 -60 -57 2 -4
-5 -6 -16 -4 -11 2 -20 0 -20 -6 0 -5 -5 -9 -12 -9 -7 0 3 16 22 35 18 19 36
32 40 30 4 -3 13 2 20 10 7 8 16 13 20 10 5 -3 12 0 15 6 4 5 10 8 13 5 3 -3
3 -9 0 -12z m582 -189 c-6 -7 -6 -15 1 -22 7 -7 5 -14 -6 -23 -8 -7 -15 -9
-15 -6 0 4 -6 4 -12 -1 -7 -4 -23 -8 -36 -9 -20 -1 -21 1 -7 16 8 9 12 19 9
23 -4 3 7 17 22 31 21 18 32 21 42 14 8 -7 9 -15 2 -23z m-825 -75 c10 -11 16
-20 13 -20 -3 0 -13 9 -23 20 -10 11 -16 20 -13 20 3 0 13 -9 23 -20z m380
-17 c-2 -10 -4 -19 -5 -20 -8 -10 -4 -91 4 -102 6 -8 10 -17 10 -20 -1 -3 2
-5 7 -3 5 1 9 -5 9 -14 0 -12 -3 -14 -13 -6 -10 9 -13 4 -13 -23 0 -18 5 -31
10 -28 5 3 6 2 3 -4 -3 -5 0 -10 7 -10 7 0 13 6 13 13 0 7 -3 12 -6 11 -3 -1
-6 3 -6 8 0 6 4 9 8 7 5 -1 6 2 3 7 -4 5 -2 13 4 16 7 4 10 -11 9 -43 -1 -27
2 -55 7 -63 21 -34 10 -39 -21 -9 -19 18 -34 36 -33 39 0 3 -1 9 -2 14 -1 4
-4 12 -5 17 -1 6 -4 12 -5 15 -1 3 -4 10 -5 15 -1 6 -4 12 -5 15 -1 3 -3 27
-4 54 -1 51 -28 96 -50 84 -7 -4 -8 -2 -1 5 6 6 19 12 30 14 11 1 26 9 33 16
18 16 21 15 17 -5z m330 -172 c3 -5 2 -12 -3 -15 -5 -3 -9 1 -9 9 0 17 3 19
12 6z m-8 -46 c0 -8 -4 -12 -9 -9 -5 3 -6 10 -3 15 9 13 12 11 12 -6z m-132
-220 c6 0 16 4 23 8 18 12 15 3 -6 -17 -18 -15 -20 -15 -38 6 -10 13 -12 18
-4 12 8 -6 20 -10 25 -9z"/>
<path d="M3543 2227 c-17 -19 -19 -28 -14 -53 0 -4 8 0 18 7 9 8 18 13 20 12
11 -8 15 -1 5 9 -8 8 -8 15 -1 24 19 23 -8 24 -28 1z m19 1 c-9 -9 -9 -15 0
-27 7 -9 8 -13 4 -9 -5 4 -15 3 -22 -3 -9 -7 -12 -6 -10 4 2 16 25 47 34 47 3
0 1 -5 -6 -12z"/>
<path d="M3115 2120 c-4 -6 -10 -8 -15 -5 -18 11 -19 -13 -1 -30 19 -16 19
-16 17 2 -2 10 1 24 7 31 5 6 7 12 4 12 -3 0 -9 -5 -12 -10z"/>
<path d="M3114 1996 c1 -14 4 -28 7 -31 3 -3 5 6 5 19 -1 14 -4 28 -7 31 -3 3
-5 -6 -5 -19z"/>
<path d="M3162 1863 c25 -27 39 -32 15 -5 -10 10 -15 21 -12 24 3 2 -2 5 -10
5 -12 0 -10 -6 7 -24z"/>
<path d="M3339 2525 c-1 -3 -3 -9 -4 -15 -1 -5 -3 -11 -4 -12 -2 -2 -4 -14 -7
-27 -2 -14 -9 -30 -15 -37 -16 -19 16 -12 39 9 10 9 22 14 27 10 4 -5 5 -2 1
5 -5 7 -11 11 -14 8 -9 -10 -32 16 -25 28 9 13 13 36 7 36 -2 0 -5 -2 -5 -5z
m5 -64 c3 -5 -2 -15 -12 -22 -15 -12 -16 -12 -5 2 7 9 10 19 6 22 -3 4 -4 7 0
7 3 0 8 -4 11 -9z"/>
<path d="M3084 2429 c-2 -4 0 -10 6 -14 5 -3 10 -3 10 1 0 3 7 1 15 -6 8 -7
15 -9 15 -4 0 4 12 -3 28 -17 20 -17 18 -14 -6 12 -31 34 -57 45 -68 28z"/>
<path d="M3496 2428 c3 -5 10 -6 15 -3 13 9 11 12 -6 12 -8 0 -12 -4 -9 -9z"/>
<path d="M3289 2393 c-13 -16 -12 -17 4 -4 16 13 21 21 13 21 -2 0 -10 -8 -17
-17z"/>
<path d="M1163 2375 c0 -8 4 -12 9 -9 5 3 6 10 3 15 -9 13 -12 11 -12 -6z"/>
<path d="M1145 2282 c3 -3 -1 -12 -7 -20 -17 -20 -18 -59 -1 -59 7 0 11 3 8 5
-3 3 0 11 6 18 7 8 7 14 -1 19 -8 5 -7 12 4 24 14 15 14 18 1 18 -8 0 -13 -3
-10 -5z m0 -41 c3 -5 2 -12 -3 -15 -5 -3 -9 1 -9 9 0 17 3 19 12 6z"/>
<path d="M160 2205 c-12 -13 -27 -22 -31 -19 -5 3 -9 -1 -9 -9 0 -9 -11 -13
-32 -13 -24 1 -32 -3 -30 -13 2 -10 -1 -12 -10 -5 -25 19 -43 10 -46 -22 -3
-27 2 -35 32 -54 40 -24 43 -32 20 -54 -8 -9 -12 -16 -7 -16 4 0 4 -4 -2 -8
-20 -14 -36 -53 -41 -100 l-5 -47 19 45 c29 70 87 188 131 268 22 39 38 72 37
72 -1 0 -13 -11 -26 -25z m-40 -60 c0 -2 -6 -8 -13 -14 -10 -8 -14 -7 -14 2 0
8 6 14 14 14 7 0 13 -1 13 -2z"/>
<path d="M2073 2160 c-29 -17 -53 -37 -53 -46 0 -12 15 -7 62 20 61 34 83 56
56 56 -7 0 -37 -14 -65 -30z"/>
<path d="M3463 2115 c0 -8 4 -12 9 -9 5 3 6 10 3 15 -9 13 -12 11 -12 -6z"/>
<path d="M1205 2073 c2 -10 4 -19 5 -20 2 -2 4 -16 5 -33 1 -16 4 -33 5 -37 1
-5 2 -12 1 -17 -1 -5 1 -16 5 -25 4 -9 9 -25 11 -36 3 -11 6 -27 8 -35 2 -8 4
-17 4 -19 1 -2 10 4 21 14 15 14 17 21 9 32 -6 7 -8 13 -4 13 4 0 1 7 -6 16
-7 9 -14 21 -15 28 -1 6 -4 21 -6 33 -2 11 -9 27 -15 35 -6 7 -9 21 -8 30 2 9
-3 22 -10 28 -10 9 -13 7 -10 -7z m31 -79 c1 -9 0 -13 -4 -10 -3 4 -7 14 -8
22 -1 9 0 13 4 10 3 -4 7 -14 8 -22z m9 -33 c3 -5 2 -12 -3 -15 -5 -3 -9 1 -9
9 0 17 3 19 12 6z m13 -44 c-1 -2 3 -11 9 -19 10 -12 10 -15 -2 -15 -8 0 -12
4 -9 8 2 4 0 10 -6 14 -6 4 -8 11 -4 16 3 6 8 8 11 5 2 -2 3 -6 1 -9z"/>
<path d="M3463 2075 c0 -6 6 -12 12 -12 6 0 12 6 12 12 0 6 -6 12 -12 12 -6 0
-12 -6 -12 -12z"/>
<path d="M3431 1996 c-9 -11 -9 -16 1 -22 7 -4 10 -4 6 1 -4 4 -3 14 3 22 6 7
9 13 6 13 -2 0 -10 -6 -16 -14z"/>
<path d="M1296 1748 c3 -5 10 -6 15 -3 13 9 11 12 -6 12 -8 0 -12 -4 -9 -9z"/>
<path d="M1356 1702 c-3 -5 3 -17 13 -26 11 -10 22 -13 25 -8 3 5 -3 17 -13
26 -11 10 -22 13 -25 8z"/>
<path d="M1643 535 c0 -6 6 -12 12 -12 6 0 12 6 12 12 0 6 -6 12 -12 12 -6 0
-12 -6 -12 -12z"/>
<path d="M1726 538 c3 -5 10 -6 15 -3 13 9 11 12 -6 12 -8 0 -12 -4 -9 -9z"/>
<path d="M1763 535 c0 -6 6 -12 12 -12 6 0 12 6 12 12 0 6 -6 12 -12 12 -6 0
-12 -6 -12 -12z"/>
<path d="M1363 495 c0 -6 6 -12 12 -12 6 0 12 6 12 12 0 6 -6 12 -12 12 -6 0
-12 -6 -12 -12z"/>
<path d="M1443 495 c0 -6 6 -12 12 -12 6 0 12 6 12 12 0 6 -6 12 -12 12 -6 0
-12 -6 -12 -12z"/>
<path d="M1483 495 c0 -6 6 -12 12 -12 6 0 12 6 12 12 0 6 -6 12 -12 12 -6 0
-12 -6 -12 -12z"/>
<path d="M2025 470 c-4 -6 -1 -9 7 -8 7 2 12 -3 10 -10 -1 -8 2 -11 8 -7 8 5
7 11 -1 21 -14 17 -16 17 -24 4z"/>
<path d="M1323 455 c0 -6 6 -12 12 -12 6 0 12 6 12 12 0 6 -6 12 -12 12 -6 0
-12 -6 -12 -12z"/>
<path d="M1403 455 c0 -6 6 -12 12 -12 6 0 12 6 12 12 0 6 -6 12 -12 12 -6 0
-12 -6 -12 -12z"/>
<path d="M1483 455 c0 -6 6 -12 12 -12 6 0 12 6 12 12 0 6 -6 12 -12 12 -6 0
-12 -6 -12 -12z"/>
<path d="M1523 455 c0 -6 6 -12 12 -12 6 0 12 6 12 12 0 6 -6 12 -12 12 -6 0
-12 -6 -12 -12z"/>
<path d="M1563 455 c0 -6 6 -12 12 -12 6 0 12 6 12 12 0 6 -6 12 -12 12 -6 0
-12 -6 -12 -12z"/>
<path d="M1963 455 c0 -6 6 -12 12 -12 6 0 12 6 12 12 0 6 -6 12 -12 12 -6 0
-12 -6 -12 -12z"/>
<path d="M1443 414 c0 -7 4 -12 8 -11 4 1 6 -2 6 -8 -1 -5 -5 -9 -8 -8 -3 1
-6 -4 -6 -11 0 -7 6 -13 13 -13 7 0 12 3 11 6 -1 3 3 6 8 6 6 0 9 -3 8 -6 -1
-3 4 -6 11 -6 7 0 13 6 13 13 0 7 -3 12 -6 11 -3 -1 -6 3 -6 8 0 6 3 9 6 8 3
-1 6 4 6 11 0 7 -6 13 -13 13 -7 0 -12 -3 -11 -6 1 -3 -2 -7 -8 -7 -5 -1 -9 1
-8 5 1 4 -4 8 -11 8 -7 0 -13 -6 -13 -13z"/>
<path d="M1523 414 c0 -7 4 -12 8 -11 4 1 6 -2 6 -8 -1 -5 -5 -9 -8 -8 -3 1
-6 -4 -6 -11 0 -7 6 -13 13 -13 7 0 12 3 11 6 -1 3 3 6 8 6 6 0 9 -3 8 -6 -1
-3 4 -6 11 -6 7 0 13 6 13 13 0 7 -3 12 -6 11 -3 -1 -6 3 -6 8 0 6 3 9 6 8 3
-1 6 4 6 11 0 7 -6 13 -13 13 -7 0 -12 -3 -11 -6 1 -3 -2 -7 -8 -7 -5 -1 -9 1
-8 5 1 4 -4 8 -11 8 -7 0 -13 -6 -13 -13z"/>
<path d="M1923 415 c0 -6 6 -12 12 -12 6 0 12 6 12 12 0 6 -6 12 -12 12 -6 0
-12 -6 -12 -12z"/>
<path d="M1963 415 c0 -6 6 -12 12 -12 6 0 12 6 12 12 0 6 -6 12 -12 12 -6 0
-12 -6 -12 -12z"/>
<path d="M2003 415 c0 -6 6 -12 12 -12 6 0 12 6 12 12 0 6 -6 12 -12 12 -6 0
-12 -6 -12 -12z"/>
<path d="M2043 415 c0 -6 6 -12 12 -12 6 0 12 6 12 12 0 6 -6 12 -12 12 -6 0
-12 -6 -12 -12z"/>
<path d="M1603 375 c0 -6 6 -12 12 -12 6 0 12 6 12 12 0 6 -6 12 -12 12 -6 0
-12 -6 -12 -12z"/>
<path d="M746 139 c2 -4 -3 -12 -11 -19 -8 -7 -15 -9 -15 -5 0 4 -6 3 -12 -2
-7 -5 -39 -9 -70 -8 l-58 1 32 -33 c17 -18 35 -30 40 -27 4 3 6 10 2 15 -3 5
-2 8 3 7 4 -2 8 2 8 7 0 6 -4 9 -8 7 -5 -1 -5 3 -2 9 5 7 10 8 18 0 7 -7 14
-7 23 0 8 7 14 7 19 -1 4 -6 3 -9 -2 -8 -4 2 -8 -1 -8 -7 0 -5 3 -9 8 -8 4 2
6 -1 5 -6 -2 -5 2 -8 7 -8 6 1 9 6 7 10 -1 5 1 6 6 3 5 -3 21 8 36 23 18 18
24 31 17 35 -10 7 -15 0 -12 -16 0 -5 -5 -7 -11 -5 -7 1 -12 -3 -11 -9 1 -6
-4 -11 -11 -11 -7 0 -13 6 -13 13 0 7 5 10 10 7 6 -4 7 -1 2 7 -6 9 -4 11 5 5
9 -6 11 -4 5 5 -5 8 -4 11 3 6 6 -3 14 -1 17 5 5 7 25 -7 56 -37 33 -32 47
-41 45 -28 -2 10 -9 18 -16 16 -7 -1 -8 2 -4 10 5 7 9 22 10 33 1 18 -5 20
-62 20 -34 0 -61 -3 -58 -6z m106 -14 c2 3 5 -1 5 -9 0 -15 -14 -16 -35 -3 -7
5 -10 13 -6 18 4 6 10 6 18 0 7 -6 15 -9 18 -6z m-216 -51 c2 -12 -1 -13 -12
-3 -7 6 -11 16 -8 21 7 11 17 3 20 -18z"/>
<path d="M3077 69 c-19 -34 -22 -49 -8 -49 10 0 36 68 29 75 -2 2 -11 -10 -21
-26z"/>
<path d="M389 54 c-7 -9 -6 -12 5 -10 9 1 19 5 22 9 4 4 13 2 19 -3 9 -7 16
-6 23 3 9 10 3 13 -24 13 -19 0 -40 -6 -45 -12z"/>
</g>
</svg>
